# Blender v3.4.1 OBJ File: ''
# www.blender.org
o Cube_Cube.001_Cube_Cube.003
v 0.074770 3.063631 -0.400471
v 0.285549 2.958242 -0.295082
v 0.390938 3.063631 -0.084304
v 0.390938 2.747463 -0.400471
v 0.074770 -0.115194 -0.400473
v 0.285549 -0.009805 -0.295084
v 0.390938 0.200974 -0.400473
v 0.390938 -0.115194 -0.084306
v 0.390938 3.063631 0.072004
v 0.285549 2.958242 0.282782
v 0.074770 3.063631 0.388171
v 0.390938 2.747463 0.388171
v 0.390938 0.200974 0.388170
v 0.285549 -0.009805 0.282780
v 0.074770 -0.115194 0.388169
v 0.390938 -0.115194 0.072002
v -0.397705 2.747463 -0.400471
v -0.292316 2.958242 -0.295082
v -0.397705 3.063631 -0.084304
v -0.081537 3.063631 -0.400471
v -0.397705 0.200974 -0.400473
v -0.292316 -0.009805 -0.295084
v -0.081537 -0.115194 -0.400473
v -0.397705 -0.115194 -0.084306
v -0.397705 2.747463 0.388171
v -0.292316 2.958242 0.282782
v -0.081537 3.063631 0.388171
v -0.397705 3.063631 0.072004
v -0.081537 -0.115194 0.388169
v -0.292316 -0.009805 0.282780
v -0.397705 0.200974 0.388170
v -0.397705 -0.115194 0.072002
v -0.003383 2.669309 -0.716639
v 0.111613 2.784306 -0.642955
v 0.050789 2.723483 -0.674379
v -0.003383 3.379797 -0.006150
v 0.111613 3.306114 -0.121146
v 0.050789 3.337538 -0.060323
v 0.707105 2.669309 -0.006150
v 0.633421 2.784306 -0.121146
v 0.664575 2.723905 -0.060746
v -0.003383 -0.431361 -0.006152
v 0.111612 -0.357677 -0.121148
v 0.051212 -0.388831 -0.060747
v -0.003383 0.279128 -0.716640
v 0.111612 0.164131 -0.642956
v 0.050789 0.224954 -0.674380
v 0.707105 0.279127 -0.006151
v 0.633421 0.164131 -0.121147
v 0.664575 0.224532 -0.060747
v 0.707105 2.669309 -0.006150
v 0.633421 2.784306 0.108846
v 0.664575 2.723905 0.048445
v -0.003383 3.379797 -0.006150
v 0.111613 3.306114 0.108846
v 0.050789 3.337538 0.048023
v -0.003383 2.669309 0.704338
v 0.111612 2.784306 0.630654
v 0.050789 2.723483 0.662079
v 0.707105 0.279127 -0.006151
v 0.633421 0.164131 0.108844
v 0.664575 0.224532 0.048444
v -0.003383 0.279127 0.704337
v 0.111612 0.164131 0.630653
v 0.050789 0.224954 0.662078
v -0.003383 -0.431361 -0.006152
v 0.111612 -0.357677 0.108843
v 0.051212 -0.388831 0.048443
v -0.003383 2.669309 -0.716639
v -0.118379 2.784306 -0.642955
v -0.057556 2.723483 -0.674379
v -0.713872 2.669309 -0.006150
v -0.640188 2.784306 -0.121146
v -0.671612 2.723483 -0.060323
v -0.003383 3.379797 -0.006150
v -0.118379 3.306114 -0.121146
v -0.057556 3.337538 -0.060323
v -0.713872 0.279127 -0.006151
v -0.640188 0.164131 -0.121147
v -0.671612 0.224954 -0.060324
v -0.003383 0.279128 -0.716640
v -0.118379 0.164131 -0.642956
v -0.057556 0.224954 -0.674380
v -0.003383 -0.431361 -0.006152
v -0.118379 -0.357677 -0.121148
v -0.057979 -0.388831 -0.060747
v -0.713872 2.669309 -0.006150
v -0.640188 2.784306 0.108845
v -0.671612 2.723483 0.048022
v -0.003383 2.669309 0.704338
v -0.118379 2.784306 0.630654
v -0.057556 2.723483 0.662079
v -0.003383 3.379797 -0.006150
v -0.118379 3.306114 0.108846
v -0.057556 3.337538 0.048023
v -0.003383 -0.431361 -0.006152
v -0.118379 -0.357677 0.108843
v -0.057979 -0.388831 0.048443
v -0.003383 0.279127 0.704337
v -0.118379 0.164131 0.630653
v -0.057556 0.224954 0.662078
v -0.713872 0.279127 -0.006151
v -0.640188 0.164131 0.108845
v -0.671612 0.224954 0.048021
vt 0.862859 0.100212
vt 0.887416 0.086034
vt 0.931300 0.155360
vt 0.895167 0.176221
vt 0.626634 0.100212
vt 0.651191 0.086034
vt 0.695075 0.155360
vt 0.658942 0.176221
vt 0.200084 0.116885
vt 0.118013 0.124114
vt 0.118567 0.077286
vt 0.168513 0.054451
vt 0.184830 0.760968
vt 0.160269 0.760681
vt 0.193289 0.699001
vt 0.229428 0.699423
vt 0.777054 0.013367
vt 0.813188 0.034229
vt 0.763516 0.100212
vt 0.738959 0.086034
vt 0.638587 0.651550
vt 0.638587 0.651550
vt 0.638587 0.651550
vt 0.638587 0.651550
vt 0.791397 0.796696
vt 0.770228 0.828597
vt 0.741638 0.759439
vt 0.756025 0.737759
vt 0.731208 0.651550
vt 0.731208 0.176221
vt 0.813187 0.186247
vt 0.813188 0.648208
vt 0.849321 0.013367
vt 0.813188 0.128890
vt 0.695075 0.155360
vt 0.109980 0.813973
vt 0.060932 0.759522
vt 0.110870 0.736688
vt 0.540829 0.013367
vt 0.576962 0.034228
vt 0.527290 0.100212
vt 0.502733 0.086034
vt 0.029341 0.697088
vt 0.036136 0.114971
vt 0.111409 0.689859
vt 0.069176 0.053292
vt 0.549106 0.730395
vt 0.521276 0.751169
vt 0.465985 0.690781
vt 0.506935 0.660214
vt 0.265559 0.699001
vt 0.347437 0.689860
vt 0.347983 0.736688
vt 0.298588 0.760681
vt 0.258771 0.116884
vt 0.340840 0.124114
vt 0.638587 0.651550
vt 0.638587 0.651550
vt 0.638587 0.651550
vt 0.638587 0.651550
vt 0.389690 0.053293
vt 0.414245 0.053006
vt 0.458849 0.114551
vt 0.422719 0.114973
vt 0.290352 0.054451
vt 0.340294 0.077286
vt 0.339393 0.000000
vt 0.627731 0.822042
vt 0.604825 0.791355
vt 0.636889 0.730560
vt 0.652457 0.751416
vt 0.576962 0.648208
vt 0.576962 0.186246
vt 0.659684 0.649252
vt 0.576962 0.128890
vt 0.587858 0.704019
vt 0.577577 0.651102
vt 0.638587 0.651550
vt 0.638587 0.651550
vt 0.638587 0.651550
vt 0.638587 0.651550
vt 0.638587 0.651550
vt 0.638587 0.651550
vt 0.638587 0.651550
vt 0.638587 0.651550
vt 0.881883 0.660339
vt 0.843657 0.732748
vt 0.803511 0.708548
vt 0.810852 0.655139
vt 0.494983 0.176221
vt 0.494982 0.651550
vt 0.638587 0.651550
vt 0.638587 0.651550
vt 0.638587 0.651550
vt 0.638587 0.651550
vt 0.429506 0.697089
vt 0.397925 0.759522
vt 0.458849 0.155360
vt 0.638587 0.651550
vt 0.638587 0.651550
vt 0.638587 0.651550
vt 0.638587 0.651550
vt 0.737253 0.668610
vt 0.119481 0.000000
vt 0.563875 0.821922
vt 0.348884 0.813973
vt 0.613095 0.013367
vt 0.833975 0.824951
vt 0.872594 0.751950
vt 0.924461 0.688594
vt 0.602287 0.830669
vt 0.602287 0.830669
vt 0.602828 0.811114
vt 0.613703 0.825683
vt 0.452657 0.140175
vt 0.452657 0.140175
vt 0.437368 0.128317
vt 0.454388 0.128118
vt 0.813188 0.000000
vt 0.813188 0.000000
vt 0.830342 0.007716
vt 0.813188 0.017620
vt 0.924810 0.193336
vt 0.924810 0.193336
vt 0.909660 0.184588
vt 0.926681 0.174761
vt 0.701565 0.626941
vt 0.701565 0.193336
vt 0.716824 0.184526
vt 0.716824 0.637940
vt 0.924810 0.626941
vt 0.909660 0.637849
vt 0.895167 0.651550
vt 0.465340 0.626941
vt 0.465340 0.193336
vt 0.480490 0.184588
vt 0.480490 0.637849
vt 0.688585 0.193336
vt 0.688584 0.626941
vt 0.673434 0.637849
vt 0.673434 0.184588
vt 0.000000 0.671193
vt 0.006198 0.140174
vt 0.021487 0.128315
vt 0.015008 0.683406
vt 0.229428 0.142780
vt 0.223230 0.673799
vt 0.207829 0.685750
vt 0.214311 0.130472
vt 0.235620 0.673798
vt 0.229428 0.142778
vt 0.244437 0.130566
vt 0.250909 0.685657
vt 0.458849 0.671195
vt 0.443841 0.683407
vt 0.576962 0.000000
vt 0.576962 0.000000
vt 0.576962 0.017494
vt 0.559940 0.007666
vt 0.465340 0.193336
vt 0.463468 0.174761
vt 0.796106 0.835808
vt 0.796106 0.835808
vt 0.784530 0.831486
vt 0.794502 0.816458
vt 0.223230 0.673799
vt 0.224987 0.685951
vt 0.602287 0.830669
vt 0.583387 0.825626
vt 0.469002 0.652109
vt 0.469002 0.652109
vt 0.487623 0.656935
vt 0.468332 0.671334
vt 0.576962 0.000000
vt 0.593984 0.007666
vt 0.688585 0.193336
vt 0.690456 0.174761
vt 0.796106 0.835808
vt 0.814560 0.829768
vt 0.919312 0.650146
vt 0.919312 0.650146
vt 0.921043 0.669305
vt 0.900985 0.655995
vt 0.813188 0.000000
vt 0.796033 0.007716
vt 0.701565 0.193336
vt 0.699670 0.174622
vn 0.0000 -0.6555 -0.7552
vn -0.7552 0.6556 0.0000
vn 0.5774 -0.5774 0.5773
vn 0.7552 0.6556 0.0000
vn 0.6555 -0.7552 0.0000
vn -0.0000 -0.0000 -1.0000
vn 0.6556 0.7552 0.0000
vn 0.7552 0.0000 -0.6555
vn 0.0000 -0.7552 -0.6555
vn 0.5774 -0.5773 -0.5774
vn 0.7552 -0.6556 0.0000
vn 0.5773 0.5773 0.5774
vn 0.0000 0.7552 0.6556
vn 0.6555 -0.0000 0.7552
vn 0.5773 -0.5774 0.5773
vn 0.0000 -0.6556 0.7551
vn -0.5773 0.5773 -0.5774
vn -0.6555 0.0000 -0.7552
vn -1.0000 -0.0000 0.0000
vn 0.0000 0.0000 1.0000
vn -0.7552 -0.6556 0.0000
vn -0.5774 -0.5773 -0.5774
vn -0.5773 -0.5774 -0.5773
vn -0.6555 -0.7552 0.0000
vn -0.7552 -0.0000 0.6556
vn -0.5774 0.5774 0.5774
vn -0.5773 -0.5774 0.5773
vn -0.5774 0.5773 0.5774
vn 1.0000 0.0000 0.0000
vn 0.5774 0.5774 -0.5774
vn -0.5773 0.5773 0.5774
vn -0.6555 -0.0000 0.7552
vn 0.5774 0.5774 0.5774
vn -0.7552 0.0000 -0.6555
vn -0.5774 0.5774 -0.5774
vn 0.0000 0.6556 0.7552
vn 0.5774 0.5773 -0.5773
vn 0.0000 -0.7552 0.6555
vn -0.6556 0.7552 0.0000
vn 0.5773 0.5773 -0.5774
vn 0.0000 0.7552 -0.6556
vn 0.5773 -0.5774 -0.5773
vn 0.7552 -0.0000 0.6556
vn 0.0000 0.6556 -0.7552
vn -0.6145 -0.7889 -0.0000
vn -0.4584 -0.8887 -0.0000
vn -0.7885 -0.6151 0.0000
vn -0.8884 -0.4590 0.0000
vn 0.0000 -0.7889 -0.6145
vn 0.0000 -0.8887 -0.4584
vn 0.0000 -0.6151 -0.7885
vn 0.0000 -0.4590 -0.8884
vn 0.7889 0.0000 -0.6145
vn 0.8887 0.0000 -0.4584
vn 0.6151 0.0000 -0.7885
vn 0.4590 0.0000 -0.8884
vn -0.6151 -0.0000 0.7885
vn -0.4590 -0.0000 0.8884
vn -0.7885 -0.0000 0.6151
vn -0.8884 -0.0000 0.4590
vn 0.6151 -0.0000 0.7885
vn 0.4590 -0.0000 0.8884
vn 0.7889 -0.0000 0.6145
vn 0.8887 -0.0000 0.4584
vn -0.6151 0.0000 -0.7885
vn -0.4590 0.0000 -0.8884
vn -0.7885 0.0000 -0.6151
vn -0.8884 0.0000 -0.4590
vn 0.0000 0.7885 0.6151
vn 0.0000 0.8884 0.4590
vn 0.0000 0.6151 0.7885
vn 0.0000 0.4590 0.8884
vn 0.6151 0.7885 0.0000
vn 0.4590 0.8884 0.0000
vn 0.7889 0.6145 0.0000
vn 0.8887 0.4584 0.0000
vn 0.0000 -0.7889 0.6145
vn 0.0000 -0.8887 0.4584
vn 0.0000 -0.6151 0.7885
vn 0.0000 -0.4590 0.8884
vn -0.6151 0.7885 0.0000
vn -0.4590 0.8884 0.0000
vn -0.7885 0.6151 0.0000
vn -0.8884 0.4590 0.0000
vn 0.0000 0.7885 -0.6151
vn 0.0000 0.8884 -0.4590
vn 0.0000 0.6151 -0.7885
vn 0.0000 0.4590 -0.8884
vn 0.6145 -0.7889 -0.0000
vn 0.4584 -0.8887 -0.0000
vn 0.7889 -0.6145 0.0000
vn 0.8887 -0.4584 0.0000
vn 0.6555 0.0000 -0.7552
s off
f 5/1/1 23/2/1 82/3/1 46/4/1
f 28/5/2 19/6/2 73/7/2 88/8/2
f 61/9/3 13/10/3 14/11/3 16/12/3
f 3/13/4 9/14/4 52/15/4 40/16/4
f 67/17/5 43/18/5 8/19/5 16/20/5
f 81/21/6 69/22/6 33/23/6 45/24/6
f 37/25/7 55/26/7 9/27/7 3/28/7
f 40/29/8 49/30/8 7/31/8 4/32/8
f 43/18/9 85/33/9 23/2/9 5/1/9
f 49/30/10 8/19/10 6/34/10 7/31/10
f 16/20/11 8/19/11 49/30/11 61/35/11
f 55/36/12 11/37/12 10/38/12 9/14/12
f 55/39/13 94/40/13 27/41/13 11/42/13
f 58/43/14 64/44/14 13/10/14 12/45/14
f 64/44/15 15/46/15 14/11/15 13/10/15
f 29/47/16 15/48/16 64/49/16 100/50/16
f 70/51/17 17/52/17 18/53/17 20/54/17
f 70/51/18 82/55/18 21/56/18 17/52/18
f 102/57/19 87/58/20 72/59/19 78/60/20
f 24/61/21 32/62/21 103/63/21 79/64/21
f 82/55/22 23/65/22 22/66/22 21/56/22
f 85/67/23 24/61/23 22/66/23 23/65/23
f 85/68/24 97/69/24 32/70/24 24/71/24
f 31/72/25 25/73/25 88/8/25 103/74/25
f 94/40/26 28/5/26 26/75/26 27/41/26
f 97/69/27 29/47/27 30/76/27 32/70/27
f 100/50/27 31/77/27 30/76/27 29/47/27
f 103/74/27 32/70/27 30/76/27 31/77/27
f 88/8/28 25/73/28 26/75/28 28/5/28
f 79/64/22 21/56/22 22/66/22 24/61/22
f 84/78/20 42/79/20 66/80/20 96/81/20
f 46/4/10 7/31/10 6/34/10 5/1/10
f 48/82/29 39/83/20 51/84/29 60/85/20
f 34/86/30 1/87/30 2/88/30 4/89/30
f 91/90/31 27/41/31 26/75/31 25/73/31
f 100/91/32 91/90/32 25/73/32 31/72/32
f 63/92/20 57/93/20 90/94/20 99/95/20
f 52/15/33 9/14/33 10/38/33 12/45/33
f 17/52/34 21/56/34 79/64/34 73/96/34
f 73/96/35 19/97/35 18/53/35 17/52/35
f 11/42/36 27/41/36 91/90/36 58/98/36
f 58/43/12 12/45/12 10/38/12 11/37/12
f 36/99/20 75/100/20 93/101/20 54/102/20
f 40/103/37 4/89/37 2/88/37 3/28/37
f 67/104/15 16/12/15 14/11/15 15/46/15
f 97/69/38 67/105/38 15/48/38 29/47/38
f 76/106/35 20/54/35 18/53/35 19/97/35
f 94/40/39 76/107/39 19/6/39 28/5/39
f 37/25/40 3/28/40 2/88/40 1/87/40
f 76/108/41 37/25/41 1/87/41 20/109/41
f 43/18/42 5/1/42 6/34/42 8/19/42
f 12/45/43 13/10/43 61/9/43 52/15/43
f 20/109/44 1/87/44 34/86/44 70/110/44
f 84/111/45 96/112/45 98/113/45 86/114/45
f 86/114/46 98/113/46 97/69/46 85/68/46
f 102/115/47 78/116/47 80/117/47 104/118/47
f 104/118/48 80/117/48 79/64/48 103/63/48
f 42/119/49 84/120/49 86/121/49 44/122/49
f 44/122/50 86/121/50 85/33/50 43/18/50
f 81/123/51 45/124/51 47/125/51 83/126/51
f 83/126/52 47/125/52 46/4/52 82/3/52
f 39/127/53 48/128/53 50/129/53 41/130/53
f 41/130/54 50/129/54 49/30/54 40/29/54
f 45/124/55 33/131/55 35/132/55 47/125/55
f 47/125/56 35/132/56 34/133/56 46/4/56
f 99/134/57 90/135/57 92/136/57 101/137/57
f 101/137/58 92/136/58 91/90/58 100/91/58
f 87/138/59 102/139/59 104/140/59 89/141/59
f 89/141/60 104/140/60 103/74/60 88/8/60
f 57/142/61 63/143/61 65/144/61 59/145/61
f 59/145/62 65/144/62 64/44/62 58/43/62
f 60/146/63 51/147/63 53/148/63 62/149/63
f 62/149/64 53/148/64 52/15/64 61/9/64
f 69/150/65 81/151/65 83/152/65 71/153/65
f 71/153/66 83/152/66 82/55/66 70/51/66
f 78/116/67 72/154/67 74/155/67 80/117/67
f 80/117/68 74/155/68 73/96/68 79/64/68
f 54/156/69 93/157/69 95/158/69 56/159/69
f 56/159/70 95/158/70 94/40/70 55/39/70
f 90/135/71 57/160/71 59/161/71 92/136/71
f 92/136/72 59/161/72 58/98/72 91/90/72
f 36/162/73 54/163/73 56/164/73 38/165/73
f 38/165/74 56/164/74 55/26/74 37/25/74
f 51/147/75 39/166/75 41/167/75 53/148/75
f 53/148/76 41/167/76 40/16/76 52/15/76
f 96/112/77 66/168/77 68/169/77 98/113/77
f 98/113/78 68/169/78 67/105/78 97/69/78
f 63/170/79 99/171/79 101/172/79 65/173/79
f 65/173/80 101/172/80 100/50/80 64/49/80
f 93/157/81 75/174/81 77/175/81 95/158/81
f 95/158/82 77/175/82 76/107/82 94/40/82
f 72/176/83 87/138/83 89/141/83 74/177/83
f 74/177/84 89/141/84 88/8/84 73/7/84
f 75/178/85 36/162/85 38/165/85 77/179/85
f 77/179/86 38/165/86 37/25/86 76/108/86
f 33/180/87 69/181/87 71/182/87 35/183/87
f 35/183/88 71/182/88 70/110/88 34/86/88
f 66/184/89 42/119/89 44/122/89 68/185/89
f 68/185/90 44/122/90 43/18/90 67/17/90
f 48/128/91 60/186/91 62/187/91 50/129/91
f 50/129/92 62/187/92 61/35/92 49/30/92
f 4/32/93 7/31/93 46/4/93 34/133/93
