# Blender v3.4.1 OBJ File: ''
# www.blender.org
o Cube_Cube.001
v 0.105238 4.903929 -0.563658
v 0.401905 4.755596 -0.415325
v 0.550238 4.903929 -0.118658
v 0.550238 4.458929 -0.563658
v 0.105238 0.429791 -0.563659
v 0.401905 0.578124 -0.415326
v 0.550238 0.874791 -0.563658
v 0.550238 0.429791 -0.118659
v 0.550238 4.903929 0.101342
v 0.401905 4.755596 0.398009
v 0.105238 4.903929 0.546342
v 0.550238 4.458929 0.546342
v 0.550238 0.874791 0.546342
v 0.401905 0.578124 0.398008
v 0.105238 0.429791 0.546341
v 0.550238 0.429791 0.101341
v -0.559762 4.458929 -0.563658
v -0.411429 4.755596 -0.415325
v -0.559762 4.903929 -0.118658
v -0.114762 4.903929 -0.563658
v -0.559762 0.874791 -0.563658
v -0.411429 0.578124 -0.415326
v -0.114762 0.429791 -0.563659
v -0.559762 0.429791 -0.118659
v -0.559762 4.458929 0.546342
v -0.411429 4.755596 0.398009
v -0.114762 4.903929 0.546342
v -0.559762 4.903929 0.101342
v -0.114762 0.429791 0.546341
v -0.411429 0.578124 0.398008
v -0.559762 0.874791 0.546342
v -0.559762 0.429791 0.101341
v -0.004762 4.348928 -1.008658
v 0.157093 4.510784 -0.904949
v 0.071485 4.425177 -0.949178
v -0.004762 5.348928 -0.008658
v 0.157093 5.245220 -0.170513
v 0.071485 5.289449 -0.084905
v 0.995238 4.348928 -0.008658
v 0.891529 4.510784 -0.170512
v 0.935377 4.425771 -0.085500
v -0.004762 -0.015209 -0.008659
v 0.157092 0.088500 -0.170513
v 0.072080 0.044652 -0.085501
v -0.004762 0.984791 -1.008658
v 0.157092 0.822936 -0.904949
v 0.071485 0.908543 -0.949178
v 0.995238 0.984791 -0.008658
v 0.891529 0.822936 -0.170512
v 0.935377 0.907949 -0.085500
v 0.995238 4.348928 -0.008658
v 0.891529 4.510784 0.153197
v 0.935377 4.425771 0.068184
v -0.004762 5.348928 -0.008658
v 0.157093 5.245220 0.153197
v 0.071485 5.289449 0.067589
v -0.004762 4.348928 0.991342
v 0.157092 4.510784 0.887633
v 0.071485 4.425177 0.931862
v 0.995238 0.984791 -0.008658
v 0.891529 0.822936 0.153196
v 0.935377 0.907949 0.068184
v -0.004762 0.984791 0.991342
v 0.157092 0.822935 0.887633
v 0.071485 0.908543 0.931862
v -0.004762 -0.015209 -0.008659
v 0.157092 0.088500 0.153195
v 0.072080 0.044652 0.068183
v -0.004762 4.348928 -1.008658
v -0.166616 4.510784 -0.904949
v -0.081009 4.425177 -0.949178
v -1.004762 4.348928 -0.008658
v -0.901053 4.510784 -0.170513
v -0.945282 4.425177 -0.084905
v -0.004762 5.348928 -0.008658
v -0.166617 5.245220 -0.170513
v -0.081009 5.289449 -0.084905
v -1.004762 0.984791 -0.008658
v -0.901053 0.822936 -0.170512
v -0.945282 0.908543 -0.084905
v -0.004762 0.984791 -1.008658
v -0.166616 0.822936 -0.904949
v -0.081009 0.908543 -0.949178
v -0.004762 -0.015209 -0.008659
v -0.166616 0.088500 -0.170513
v -0.081604 0.044652 -0.085501
v -1.004762 4.348928 -0.008658
v -0.901053 4.510784 0.153196
v -0.945282 4.425177 0.067589
v -0.004762 4.348928 0.991342
v -0.166616 4.510784 0.887633
v -0.081009 4.425177 0.931862
v -0.004762 5.348928 -0.008658
v -0.166617 5.245220 0.153197
v -0.081009 5.289449 0.067589
v -0.004762 -0.015209 -0.008659
v -0.166616 0.088500 0.153195
v -0.081604 0.044652 0.068183
v -0.004762 0.984791 0.991342
v -0.166616 0.822935 0.887633
v -0.081009 0.908543 0.931862
v -1.004762 0.984791 -0.008658
v -0.901053 0.822936 0.153197
v -0.945282 0.908543 0.067589
vt 0.375000 0.388750
vt 0.375000 0.361250
vt 0.409229 0.354768
vt 0.409229 0.395232
vt 0.625000 0.111250
vt 0.625000 0.138750
vt 0.590771 0.145232
vt 0.590771 0.104768
vt 0.411561 0.652392
vt 0.416479 0.750000
vt 0.384218 0.750000
vt 0.375000 0.638750
vt 0.625000 0.611250
vt 0.625000 0.638750
vt 0.590771 0.645232
vt 0.590771 0.604768
vt 0.283195 0.645232
vt 0.283195 0.604768
vt 0.375000 0.611250
vt 0.421606 0.375000
vt 0.578394 0.375000
vt 0.578394 0.375000
vt 0.421606 0.375000
vt 0.716805 0.604768
vt 0.716805 0.645232
vt 0.585938 0.591805
vt 0.414062 0.591805
vt 0.416479 0.500000
vt 0.583521 0.500000
vt 0.270232 0.591805
vt 0.229768 0.591805
vt 0.236250 0.500000
vt 0.263750 0.500000
vt 0.411109 0.598060
vt 0.359495 0.524722
vt 0.409229 0.604768
vt 0.409229 0.645232
vt 0.722891 0.651940
vt 0.736250 0.750000
vt 0.640505 0.725278
vt 0.729768 0.658195
vt 0.770232 0.658195
vt 0.763750 0.750000
vt 0.585938 0.841805
vt 0.414062 0.841804
vt 0.583521 0.750000
vt 0.411561 0.847608
vt 0.375000 0.861250
vt 0.375000 0.888750
vt 0.409229 0.854768
vt 0.409229 0.895232
vt 0.588101 0.347608
vt 0.583521 0.250000
vt 0.597347 0.250000
vt 0.625000 0.361250
vt 0.585938 0.341805
vt 0.414062 0.341805
vt 0.416479 0.250000
vt 0.421606 0.125000
vt 0.578394 0.125000
vt 0.578394 0.125000
vt 0.421606 0.125000
vt 0.375000 0.138750
vt 0.375000 0.111250
vt 0.409229 0.104768
vt 0.409229 0.145232
vt 0.411393 0.348965
vt 0.375000 0.324167
vt 0.222608 0.598965
vt 0.125000 0.611250
vt 0.125000 0.574167
vt 0.216805 0.604768
vt 0.216805 0.645232
vt 0.125000 0.638750
vt 0.416479 0.000000
vt 0.583521 0.000000
vt 0.585938 0.091805
vt 0.414062 0.091805
vt 0.777392 0.651035
vt 0.875000 0.638750
vt 0.875000 0.675833
vt 0.223965 0.652392
vt 0.236250 0.750000
vt 0.199167 0.750000
vt 0.411899 0.902392
vt 0.416479 1.000000
vt 0.402653 1.000000
vt 0.411393 0.098965
vt 0.375000 0.074167
vt 0.588101 0.097608
vt 0.597347 0.000000
vt 0.411899 0.152392
vt 0.402653 0.250000
vt 0.250000 0.625000
vt 0.250000 0.625000
vt 0.250000 0.625000
vt 0.250000 0.625000
vt 0.411109 0.402845
vt 0.421606 0.625000
vt 0.578394 0.625000
vt 0.578394 0.625000
vt 0.421606 0.625000
vt 0.588439 0.402392
vt 0.625000 0.388750
vt 0.615782 0.500000
vt 0.588607 0.901035
vt 0.625000 0.888750
vt 0.625000 0.925833
vt 0.583521 1.000000
vt 0.414062 0.908195
vt 0.585937 0.908195
vt 0.421606 0.875000
vt 0.578394 0.875000
vt 0.578394 0.875000
vt 0.421606 0.875000
vt 0.588891 0.651940
vt 0.414062 0.158195
vt 0.585938 0.158195
vt 0.588607 0.151035
vt 0.625000 0.175833
vt 0.625000 0.861250
vt 0.590771 0.895232
vt 0.590771 0.854768
vt 0.588891 0.847155
vt 0.750000 0.625000
vt 0.750000 0.625000
vt 0.750000 0.625000
vt 0.750000 0.625000
vt 0.588439 0.597608
vt 0.277561 0.652392
vt 0.263750 0.750000
vt 0.229768 0.658195
vt 0.270232 0.658195
vt 0.776035 0.597608
vt 0.763750 0.500000
vt 0.800833 0.500000
vt 0.875000 0.611250
vt 0.783195 0.645232
vt 0.783195 0.604768
vt 0.722439 0.597608
vt 0.736250 0.500000
vt 0.770232 0.591805
vt 0.729768 0.591805
vt 0.277109 0.598060
vt 0.414062 0.658195
vt 0.585938 0.658195
vt 0.590771 0.395232
vt 0.590771 0.354768
vt 0.238322 0.636678
vt 0.238322 0.613322
vt 0.417266 0.136640
vt 0.417266 0.113360
vt 0.261678 0.613322
vt 0.417266 0.386640
vt 0.417266 0.363360
vt 0.417252 0.613322
vt 0.582748 0.613322
vt 0.582734 0.386640
vt 0.585938 0.408195
vt 0.414062 0.408195
vt 0.582734 0.886640
vt 0.417266 0.886641
vt 0.582734 0.113360
vt 0.417266 0.863360
vt 0.582734 0.863360
vt 0.582748 0.636678
vt 0.417252 0.636678
vt 0.582734 0.363360
vt 0.582734 0.136640
vt 0.761640 0.636640
vt 0.738360 0.636640
vt 0.738359 0.613360
vt 0.261678 0.636678
vt 0.761640 0.613360
vn 0.0000 -0.6556 -0.7552
vn -0.7552 0.6556 0.0000
vn 0.5774 -0.5774 0.5773
vn 0.7552 0.6556 0.0000
vn 0.6555 -0.7552 0.0000
vn -0.0000 -0.0000 -1.0000
vn 0.6556 0.7552 0.0000
vn 0.7552 0.0000 -0.6555
vn 0.0000 -0.7552 -0.6555
vn 0.5774 -0.5773 -0.5773
vn 0.7552 -0.6556 0.0000
vn 0.5774 0.5773 0.5774
vn 0.0000 0.7552 0.6556
vn 0.6555 -0.0000 0.7552
vn 0.5773 -0.5774 0.5774
vn 0.0000 -0.6556 0.7552
vn -0.5773 0.5773 -0.5774
vn -0.6555 0.0000 -0.7552
vn -1.0000 -0.0000 0.0000
vn 0.0000 0.0000 -0.0000
vn -0.7552 -0.6556 0.0000
vn -0.5773 -0.5773 -0.5774
vn -0.5773 -0.5774 -0.5773
vn -0.6555 -0.7552 0.0000
vn -0.7552 -0.0000 0.6556
vn -0.5774 0.5774 0.5774
vn -0.5773 -0.5774 0.5773
vn -0.5773 -0.5774 0.5774
vn -0.5774 -0.5774 0.5774
vn -0.5774 0.5773 0.5774
vn -0.5774 -0.5773 -0.5773
vn 0.5773 -0.5773 -0.5774
vn 1.0000 0.0000 0.0000
vn 0.5774 0.5774 -0.5774
vn -0.5773 0.5773 0.5774
vn -0.6555 -0.0000 0.7552
vn 0.0000 0.0000 1.0000
vn 0.5773 0.5773 0.5774
vn -0.7552 0.0000 -0.6556
vn 0.0000 0.6555 0.7552
vn 0.5774 0.5773 -0.5774
vn 0.5773 -0.5774 0.5773
vn 0.0000 -0.7552 0.6555
vn -0.5774 0.5774 -0.5774
vn -0.6556 0.7552 0.0000
vn 0.0000 0.7552 -0.6556
vn 0.5773 -0.5774 -0.5773
vn 0.7552 -0.0000 0.6556
vn 0.0000 0.6556 -0.7552
vn -0.6145 -0.7889 0.0000
vn -0.4584 -0.8887 0.0000
vn -0.7885 -0.6151 0.0000
vn -0.8884 -0.4590 0.0000
vn 0.0000 -0.7889 -0.6145
vn 0.0000 -0.8887 -0.4584
vn 0.0000 -0.6151 -0.7885
vn 0.0000 -0.4590 -0.8884
vn 0.7889 0.0000 -0.6145
vn 0.8887 0.0000 -0.4584
vn 0.6151 0.0000 -0.7885
vn 0.4590 0.0000 -0.8884
vn -0.6151 -0.0000 0.7885
vn -0.4590 -0.0000 0.8884
vn -0.7885 -0.0000 0.6151
vn -0.8884 -0.0000 0.4590
vn 0.6151 -0.0000 0.7885
vn 0.4590 -0.0000 0.8884
vn 0.7889 -0.0000 0.6145
vn 0.8887 -0.0000 0.4584
vn -0.6151 0.0000 -0.7885
vn -0.4590 0.0000 -0.8884
vn -0.7885 0.0000 -0.6151
vn -0.8884 0.0000 -0.4590
vn 0.0000 0.7885 0.6151
vn 0.0000 0.8884 0.4590
vn 0.0000 0.6151 0.7885
vn 0.0000 0.4590 0.8884
vn 0.6151 0.7885 0.0000
vn 0.4590 0.8884 0.0000
vn 0.7889 0.6145 0.0000
vn 0.8887 0.4584 0.0000
vn 0.0000 -0.7889 0.6145
vn 0.0000 -0.8887 0.4584
vn 0.0000 -0.6151 0.7885
vn 0.0000 -0.4590 0.8884
vn -0.6151 0.7885 0.0000
vn -0.4590 0.8884 0.0000
vn -0.7885 0.6151 0.0000
vn -0.8884 0.4590 0.0000
vn 0.0000 0.7885 -0.6151
vn 0.0000 0.8884 -0.4590
vn 0.0000 0.6151 -0.7885
vn 0.0000 0.4590 -0.8884
vn 0.6145 -0.7889 0.0000
vn 0.4584 -0.8887 0.0000
vn 0.7889 -0.6145 0.0000
vn 0.8887 -0.4584 0.0000
vn 0.6556 0.0000 -0.7552
s off
f 5/1/1 23/2/1 82/3/1 46/4/1
f 28/5/2 19/6/2 73/7/2 88/8/2
f 61/9/3 13/10/3 14/11/3 16/12/3
f 3/13/4 9/14/4 52/15/4 40/16/4
f 67/17/5 43/18/5 8/19/5 16/12/5
f 81/20/6 69/21/6 33/22/6 45/23/6
f 37/24/7 55/25/7 9/14/7 3/13/7
f 40/26/8 49/27/8 7/28/8 4/29/8
f 43/30/9 85/31/9 23/32/9 5/33/9
f 49/34/10 8/19/10 6/35/10 7/28/10
f 16/12/11 8/19/11 49/36/11 61/37/11
f 55/38/12 11/39/12 10/40/12 9/14/12
f 55/41/13 94/42/13 27/43/13 11/39/13
f 58/44/14 64/45/14 13/10/14 12/46/14
f 64/47/15 15/48/15 14/11/15 13/10/15
f 29/49/16 15/48/16 64/50/16 100/51/16
f 70/52/17 17/53/17 18/54/17 20/55/17
f 70/56/18 82/57/18 21/58/18 17/53/18
f 102/59/19 87/60/20 72/61/19 78/62/20
f 24/63/21 32/64/21 103/65/21 79/66/21
f 82/67/22 23/2/22 22/68/22 21/58/22
f 85/69/23 24/70/23 22/71/23 23/32/23
f 85/72/24 97/73/24 32/74/24 24/70/24
f 31/75/25 25/76/25 88/77/25 103/78/25
f 94/79/26 28/80/26 26/81/26 27/43/26
f 97/82/27 29/83/27 30/84/27 32/74/27
f 100/85/28 31/86/28 30/87/28 29/49/28
f 103/88/29 32/64/29 30/89/29 31/75/29
f 88/90/30 25/76/30 26/91/30 28/5/30
f 79/92/31 21/58/31 22/93/31 24/63/31
f 84/94/20 42/95/20 66/96/20 96/97/20
f 46/98/32 7/28/32 6/35/32 5/1/32
f 48/99/33 39/100/20 51/101/33 60/102/20
f 34/103/34 1/104/34 2/105/34 4/29/34
f 91/106/35 27/107/35 26/108/35 25/109/35
f 100/110/36 91/111/36 25/109/36 31/86/36
f 63/112/37 57/113/37 90/114/37 99/115/37
f 52/116/38 9/14/38 10/40/38 12/46/38
f 17/53/39 21/58/39 79/117/39 73/118/39
f 73/119/17 19/6/17 18/120/17 17/53/17
f 11/121/40 27/107/40 91/122/40 58/123/40
f 58/124/12 12/46/12 10/40/12 11/121/12
f 36/125/20 75/126/20 93/127/20 54/128/20
f 40/129/41 4/29/41 2/105/41 3/13/41
f 67/130/42 16/12/42 14/11/42 15/131/42
f 97/132/43 67/133/43 15/131/43 29/83/43
f 76/134/44 20/135/44 18/136/44 19/137/44
f 94/138/45 76/139/45 19/137/45 28/80/45
f 37/140/34 3/13/34 2/105/34 1/141/34
f 76/142/46 37/143/46 1/141/46 20/135/46
f 43/144/47 5/33/47 6/35/47 8/19/47
f 12/46/48 13/10/48 61/145/48 52/146/48
f 20/55/49 1/104/49 34/147/49 70/148/49
f 84/94/50 96/97/50 98/149/50 86/150/50
f 86/150/51 98/149/51 97/73/51 85/72/51
f 102/59/52 78/62/52 80/151/52 104/152/52
f 104/152/53 80/151/53 79/66/53 103/65/53
f 42/95/54 84/94/54 86/150/54 44/153/54
f 44/153/55 86/150/55 85/31/55 43/30/55
f 81/20/56 45/23/56 47/154/56 83/155/56
f 83/155/57 47/154/57 46/4/57 82/3/57
f 39/100/58 48/99/58 50/156/58 41/157/58
f 41/157/59 50/156/59 49/27/59 40/26/59
f 45/23/60 33/22/60 35/158/60 47/154/60
f 47/154/61 35/158/61 34/159/61 46/160/61
f 99/115/62 90/114/62 92/161/62 101/162/62
f 101/162/63 92/161/63 91/111/63 100/110/63
f 87/60/64 102/59/64 104/152/64 89/163/64
f 89/163/65 104/152/65 103/78/65 88/77/65
f 57/113/66 63/112/66 65/164/66 59/165/66
f 59/165/67 65/164/67 64/45/67 58/44/67
f 60/102/68 51/101/68 53/166/68 62/167/68
f 62/167/69 53/166/69 52/146/69 61/145/69
f 69/21/70 81/20/70 83/155/70 71/168/70
f 71/168/71 83/155/71 82/57/71 70/56/71
f 78/62/72 72/61/72 74/169/72 80/151/72
f 80/151/73 74/169/73 73/118/73 79/117/73
f 54/128/74 93/127/74 95/170/74 56/171/74
f 56/171/75 95/170/75 94/42/75 55/41/75
f 90/114/76 57/113/76 59/165/76 92/161/76
f 92/161/77 59/165/77 58/123/77 91/122/77
f 36/125/78 54/128/78 56/171/78 38/172/78
f 38/172/79 56/171/79 55/25/79 37/24/79
f 51/101/80 39/100/80 41/157/80 53/166/80
f 53/166/81 41/157/81 40/16/81 52/15/81
f 96/97/82 66/96/82 68/173/82 98/149/82
f 98/149/83 68/173/83 67/133/83 97/132/83
f 63/112/84 99/115/84 101/162/84 65/164/84
f 65/164/85 101/162/85 100/51/85 64/50/85
f 93/127/86 75/126/86 77/174/86 95/170/86
f 95/170/87 77/174/87 76/139/87 94/138/87
f 72/61/88 87/60/88 89/163/88 74/169/88
f 74/169/89 89/163/89 88/8/89 73/7/89
f 75/126/90 36/125/90 38/172/90 77/174/90
f 77/174/91 38/172/91 37/143/91 76/142/91
f 33/22/92 69/21/92 71/168/92 35/158/92
f 35/158/93 71/168/93 70/148/93 34/147/93
f 66/96/94 42/95/94 44/153/94 68/173/94
f 68/173/95 44/153/95 43/18/95 67/17/95
f 48/99/96 60/102/96 62/167/96 50/156/96
f 50/156/97 62/167/97 61/37/97 49/36/97
f 4/29/98 7/28/98 46/160/98 34/159/98
