# Blender v3.4.1 OBJ File: ''
# www.blender.org
o Crystal01_Untitled.011_Crystal01_Untitled.001
v -0.376951 0.976997 0.426528
v -0.376951 0.976997 0.426528
v -0.376951 0.976997 0.426528
v -0.323490 1.085268 0.524496
v -0.323490 1.085268 0.524496
v -0.323490 1.085268 0.524496
v -0.296322 4.778208 0.570732
v -0.296322 4.778208 0.570732
v -0.296322 4.778208 0.570732
v -0.296322 4.778208 0.570732
v -0.598182 4.811424 0.161240
v -0.598182 4.811424 0.161240
v -0.598182 4.811424 0.161240
v -0.598182 4.811424 0.161240
v -0.588273 1.169150 0.059019
v -0.588273 1.169150 0.059019
v -0.588273 1.169150 0.059019
v -0.479718 0.987295 0.242648
v -0.479718 0.987295 0.242648
v -0.479718 0.987295 0.242648
v -0.413362 0.817409 -0.309881
v -0.413362 0.817409 -0.309881
v -0.413362 0.817409 -0.309881
v -0.483403 1.010418 -0.290463
v -0.483403 1.010418 -0.290463
v -0.483403 1.010418 -0.290463
v -0.461951 1.417088 -0.365301
v -0.461951 1.417088 -0.365301
v -0.461951 1.417088 -0.365301
v -0.320578 1.005878 -0.376418
v -0.320578 1.005878 -0.376418
v -0.320578 1.005878 -0.376418
v -0.364827 4.845014 -0.382918
v -0.364827 4.845014 -0.382918
v -0.364827 4.845014 -0.382918
v -0.364827 4.845014 -0.382918
v 0.043333 5.419280 0.117352
v 0.043333 5.419280 0.117352
v 0.043333 5.419280 0.117352
v 0.043333 5.419280 0.117352
v 0.042559 5.342701 -0.040026
v 0.042559 5.342701 -0.040026
v 0.042559 5.342701 -0.040026
v 0.416902 4.636745 -0.353863
v 0.416902 4.636745 -0.353863
v 0.416902 4.636745 -0.353863
v 0.416902 4.636745 -0.353863
v 0.246871 4.855278 0.513291
v 0.246871 4.855278 0.513291
v 0.246871 4.855278 0.513291
v 0.218775 4.760502 0.567469
v 0.218775 4.760502 0.567469
v 0.218775 4.760502 0.567469
v 0.295943 4.602133 0.564879
v 0.295943 4.602133 0.564879
v 0.295943 4.602133 0.564879
v 0.329743 4.687284 0.526442
v 0.329743 4.687284 0.526442
v 0.329743 4.687284 0.526442
v 0.033106 5.326019 0.253294
v 0.033106 5.326019 0.253294
v 0.033106 5.326019 0.253294
v -0.145534 0.964535 0.541164
v -0.145534 0.964535 0.541164
v -0.145534 0.964535 0.541164
v 0.135376 0.953241 0.573329
v 0.135376 0.953241 0.573329
v 0.135376 0.953241 0.573329
v 0.421970 1.474144 0.635281
v 0.421970 1.474144 0.635281
v 0.421970 1.474144 0.635281
v 0.525762 4.801939 -0.039529
v 0.525762 4.801939 -0.039529
v 0.525762 4.801939 -0.039529
v 0.445216 4.978952 0.060033
v 0.445216 4.978952 0.060033
v 0.445216 4.978952 0.060033
v 0.545042 4.740894 0.184247
v 0.545042 4.740894 0.184247
v 0.545042 4.740894 0.184247
v 0.638985 4.313520 0.036991
v 0.638985 4.313520 0.036991
v 0.638985 4.313520 0.036991
v 0.461858 0.944749 0.472939
v 0.461858 0.944749 0.472939
v 0.461858 0.944749 0.472939
v 0.605473 0.952043 0.100825
v 0.605473 0.952043 0.100825
v 0.605473 0.952043 0.100825
v 0.650238 1.113086 -0.014618
v 0.650238 1.113086 -0.014618
v 0.650238 1.113086 -0.014618
v 0.642236 4.189839 0.024320
v 0.642236 4.189839 0.024320
v 0.642236 4.189839 0.024320
v 0.519098 4.696396 -0.131307
v 0.519098 4.696396 -0.131307
v 0.519098 4.696396 -0.131307
v 0.354756 0.770730 0.493571
v 0.354756 0.770730 0.493571
v 0.354756 0.770730 0.493571
v -0.193218 0.612448 0.320286
v -0.193218 0.612448 0.320286
v -0.193218 0.612448 0.320286
v 0.039744 -0.029720 0.015764
v 0.039744 -0.029720 0.015764
v 0.039744 -0.029720 0.015764
v 0.039744 -0.029720 0.015764
v 0.148318 0.140801 0.084561
v 0.148318 0.140801 0.084561
v 0.148318 0.140801 0.084561
v 0.591130 0.803308 -0.008747
v 0.591130 0.803308 -0.008747
v 0.591130 0.803308 -0.008747
v -0.314657 0.405136 -0.029783
v -0.314657 0.405136 -0.029783
v -0.314657 0.405136 -0.029783
v -0.203964 0.159805 -0.066850
v -0.203964 0.159805 -0.066850
v -0.203964 0.159805 -0.066850
v -0.537240 1.003588 -0.125387
v -0.537240 1.003588 -0.125387
v -0.537240 1.003588 -0.125387
v 0.601537 0.959973 -0.108703
v 0.601537 0.959973 -0.108703
v 0.601537 0.959973 -0.108703
v 0.350286 0.616036 -0.252826
v 0.350286 0.616036 -0.252826
v 0.350286 0.616036 -0.252826
v 0.153798 0.987209 -0.359966
v 0.153798 0.987209 -0.359966
v 0.153798 0.987209 -0.359966
v 0.464806 1.563906 -0.361139
v 0.464806 1.563906 -0.361139
v 0.464806 1.563906 -0.361139
v 0.627249 0.957023 -0.060291
v 0.627249 0.957023 -0.060291
v 0.627249 0.957023 -0.060291
vt 0.228940 0.888385
vt 0.298279 0.903479
vt 0.270325 0.960650
vt 0.088472 0.901575
vt 0.133824 0.900255
vt 0.135811 0.909686
vt 0.114709 0.960196
vt 0.037688 0.540933
vt 0.056170 0.543482
vt 0.064575 0.556660
vt 0.088472 0.901575
vt 0.043814 0.915786
vt 0.012525 0.558604
vt 0.314692 0.527478
vt 0.324105 0.546603
vt 0.316986 0.583821
vt 0.303996 0.545811
vt 0.298279 0.903479
vt 0.349113 0.917582
vt 0.277482 0.980151
vt 0.270325 0.960650
vt 0.135811 0.909686
vt 0.133824 0.900255
vt 0.139645 0.887862
vt 0.143401 0.897642
vt 0.043814 0.915786
vt 0.088472 0.901575
vt 0.114709 0.960196
vt 0.116755 0.976606
vt 0.088472 0.901575
vt 0.064575 0.556660
vt 0.081185 0.545448
vt 0.109565 0.545526
vt 0.134943 0.591851
vt 0.139645 0.887862
vt 0.133824 0.900255
vt 0.207810 0.911601
vt 0.212571 0.938322
vt 0.180887 0.910610
vt 0.194237 0.865208
vt 0.114709 0.960196
vt 0.135811 0.909686
vt 0.143401 0.897642
vt 0.180887 0.910610
vt 0.171479 0.943675
vt 0.116755 0.976606
vt 0.139645 0.887862
vt 0.134943 0.591851
vt 0.144303 0.543894
vt 0.184033 0.535964
vt 0.197839 0.553568
vt 0.194300 0.852245
vt 0.194237 0.865208
vt 0.180887 0.910610
vt 0.143401 0.897642
vt 0.277482 0.980151
vt 0.212571 0.938322
vt 0.207810 0.911601
vt 0.211326 0.899484
vt 0.228940 0.888385
vt 0.270325 0.960650
vt 0.194300 0.852245
vt 0.211326 0.899484
vt 0.207810 0.911601
vt 0.194237 0.865208
vt 0.124729 0.439226
vt 0.132749 0.529386
vt 0.109565 0.545526
vt 0.081185 0.545448
vt 0.074217 0.501942
vt 0.106770 0.416168
vt 0.124729 0.439226
vt 0.194132 0.513064
vt 0.184033 0.535964
vt 0.144303 0.543894
vt 0.132749 0.529386
vt 0.106770 0.416168
vt 0.074217 0.501942
vt 0.056170 0.543482
vt 0.037688 0.540933
vt 0.044420 0.461519
vt 0.066236 0.430375
vt 0.296122 0.453378
vt 0.317221 0.474727
vt 0.341915 0.543751
vt 0.324105 0.546603
vt 0.314692 0.527478
vt 0.324105 0.546603
vt 0.341915 0.543751
vt 0.359687 0.561008
vt 0.349113 0.917582
vt 0.298279 0.903479
vt 0.316986 0.583821
vt 0.206188 0.537488
vt 0.236963 0.504596
vt 0.257223 0.542643
vt 0.229497 0.597580
vt 0.296122 0.453378
vt 0.314692 0.527478
vt 0.303996 0.545811
vt 0.257223 0.542643
vt 0.236963 0.504596
vt 0.269676 0.431296
vt 0.257223 0.542643
vt 0.303996 0.545811
vt 0.316986 0.583821
vt 0.298279 0.903479
vt 0.228940 0.888385
vt 0.229497 0.597580
vt 0.199311 0.534822
vt 0.206188 0.537488
vt 0.229497 0.597580
vt 0.228940 0.888385
vt 0.211326 0.899484
vt 0.194300 0.852245
vt 0.197839 0.553568
vt 0.269676 0.431296
vt 0.236963 0.504596
vt 0.206188 0.537488
vt 0.199311 0.534822
vt 0.194132 0.513064
vt 0.247618 0.440093
vt 0.194132 0.513064
vt 0.199311 0.534822
vt 0.197839 0.553568
vt 0.184033 0.535964
vt 0.134943 0.591851
vt 0.109565 0.545526
vt 0.132749 0.529386
vt 0.144303 0.543894
vt 0.074217 0.501942
vt 0.081185 0.545448
vt 0.064575 0.556660
vt 0.056170 0.543482
vt 0.012525 0.558604
vt 0.000447 0.529325
vt 0.044420 0.461519
vt 0.037688 0.540933
vn 0.1574 0.4697 -0.8687
vn 0.0224 0.4911 0.8708
vn -0.8407 -0.0093 0.5413
vn -0.8407 -0.0093 0.5414
vn -0.8408 -0.0093 0.5413
vn -0.4662 -0.1188 -0.8767
vn -0.4661 -0.1188 -0.8767
vn -0.6634 0.7005 -0.2629
vn 0.4828 0.2638 0.8351
vn -0.5978 0.6493 0.4702
vn -0.0798 -0.0011 0.9968
vn 0.9600 0.2798 -0.0064
vn 0.7024 0.5388 0.4650
vn 0.7024 0.5389 0.4650
vn 0.9044 0.0148 0.4264
vn 0.6587 0.5820 -0.4769
vn 0.6587 0.5820 -0.4768
vn 0.9295 0.1413 -0.3406
vn 0.9295 0.1414 -0.3406
vn -0.0913 -0.4988 0.8619
vn -0.0913 -0.4987 0.8619
vn 0.8143 -0.4658 0.3464
vn -0.7029 -0.4732 0.5311
vn -0.7028 -0.4732 0.5311
vn -0.9009 -0.3619 -0.2397
vn -0.9009 -0.3618 -0.2397
vn -0.9398 0.0152 -0.3415
vn -0.9398 0.0152 -0.3414
vn 0.4761 -0.1564 -0.8654
vn -0.0070 -0.3423 -0.9396
vn 0.0188 -0.0007 -0.9998
vn 0.8775 0.0149 -0.4793
vn 0.8775 0.0148 -0.4793
vn 0.8008 -0.5059 -0.3207
vn 0.8008 -0.5058 -0.3208
vn 0.9749 -0.1836 0.1262
vn 0.9749 -0.1836 0.1261
vn 0.9748 -0.1836 0.1266
vn 0.9749 -0.1836 0.1260
vn 0.2819 -0.2153 0.9350
vn -0.4148 -0.4547 0.7881
vn -0.4149 -0.4547 0.7881
vn -0.9286 -0.3476 0.1296
vn -0.9286 -0.3476 0.1297
vn -0.9286 -0.3476 0.1295
vn -0.9286 -0.3476 0.1298
s off
f 45/1/1 36/2/1 42/3/1
f 10/4/2 52/5/2 48/6/2
f 10/4/2 48/6/2 61/7/2
s 1
f 19/8/3 1/9/4 4/10/5
f 4/10/5 7/11/4 11/12/5
f 11/12/5 16/13/4 19/8/3
f 4/10/5 11/12/5 19/8/3
f 22/14/6 26/15/7 28/16/7
f 22/14/6 28/16/7 30/17/7
f 34/18/8 14/19/8 39/20/8
f 34/18/8 39/20/8 41/21/8
f 49/22/9 53/23/9 55/24/9
f 49/22/9 55/24/9 57/25/9
f 12/26/10 8/27/10 60/28/10
f 12/26/10 60/28/10 37/29/10
f 9/30/11 6/31/11 65/32/11
f 65/32/11 67/33/11 69/34/11
f 69/34/11 54/35/11 51/36/11
f 51/36/11 9/30/11 65/32/11
f 65/32/11 69/34/11 51/36/11
f 74/37/12 77/38/12 80/39/12
f 74/37/12 80/39/12 83/40/12
f 62/41/13 50/42/13 58/43/14
f 58/43/14 78/44/14 75/45/14
f 75/45/14 38/46/14 62/41/13
f 58/43/14 75/45/14 62/41/13
f 56/47/15 71/48/15 86/49/15
f 86/49/15 88/50/15 91/51/15
f 91/51/15 94/52/15 81/53/15
f 81/53/15 79/54/15 59/55/15
f 59/55/15 56/47/15 86/49/15
f 86/49/15 91/51/15 81/53/15
f 86/49/15 81/53/15 59/55/15
f 40/56/16 76/57/17 72/58/17
f 72/58/17 96/59/17 46/60/17
f 46/60/17 43/61/17 40/56/16
f 72/58/17 46/60/17 40/56/16
f 95/62/18 98/63/19 73/64/19
f 95/62/18 73/64/19 82/65/19
f 109/66/20 99/67/20 66/68/20
f 66/68/20 64/69/20 104/70/20
f 104/70/20 106/71/21 109/66/20
f 66/68/20 104/70/20 109/66/20
f 110/72/22 113/73/22 87/74/22
f 87/74/22 85/75/22 101/76/22
f 87/74/22 101/76/22 110/72/22
f 105/77/23 102/78/23 2/79/24
f 2/79/24 20/80/23 116/81/24
f 116/81/24 118/82/23 105/77/23
f 2/79/24 116/81/24 105/77/23
f 119/83/25 117/84/25 123/85/26
f 123/85/26 25/86/25 21/87/26
f 123/85/26 21/87/26 119/83/25
f 24/88/27 122/89/28 17/90/28
f 17/90/28 13/91/27 33/92/28
f 33/92/28 27/93/28 24/88/27
f 17/90/28 33/92/28 24/88/27
f 124/94/29 128/95/29 132/96/29
f 124/94/29 132/96/29 134/97/29
f 120/98/30 23/99/30 31/100/30
f 31/100/30 130/101/30 127/102/30
f 127/102/30 107/103/30 120/98/30
f 31/100/30 127/102/30 120/98/30
f 131/104/31 32/105/31 29/106/31
f 29/106/31 35/107/31 44/108/31
f 44/108/31 133/109/31 131/104/31
f 29/106/31 44/108/31 131/104/31
f 137/110/32 126/111/32 135/112/32
f 135/112/32 47/113/32 97/114/32
f 97/114/32 93/115/33 90/116/32
f 90/116/32 137/110/32 135/112/32
f 135/112/32 97/114/32 90/116/32
f 108/117/34 129/118/34 125/119/34
f 125/119/34 136/120/34 112/121/35
f 112/121/35 111/122/34 108/117/34
f 125/119/34 112/121/35 108/117/34
f 114/123/36 138/124/37 92/125/38
f 114/123/36 92/125/38 89/126/39
f 70/127/40 68/128/40 100/129/40
f 70/127/40 100/129/40 84/130/40
f 103/131/41 63/132/42 5/133/42
f 103/131/41 5/133/42 3/134/42
f 15/135/43 121/136/44 115/137/45
f 15/135/43 115/137/45 18/138/46
