# Blender v3.4.1 OBJ File: ''
# www.blender.org
o Cube_Cube.004
v 0.424344 -0.018033 -0.832580
v 0.424344 -0.018033 -0.832580
v 0.424344 -0.018033 -0.832580
v 0.424344 -0.018033 -0.832580
v 0.394498 -0.004038 -0.843769
v 0.394498 -0.004038 -0.843769
v 0.394498 -0.004038 -0.843769
v 0.394498 -0.004038 -0.843769
v 0.406925 0.019309 -0.836244
v 0.406925 0.019309 -0.836244
v 0.406925 0.019309 -0.836244
v 0.406925 0.019309 -0.836244
v 0.434967 0.004228 -0.821064
v 0.434967 0.004228 -0.821064
v 0.434967 0.004228 -0.821064
v 0.434967 0.004228 -0.821064
v -0.521886 -0.772534 -0.020109
v -0.521886 -0.772534 -0.020109
v -0.521886 -0.772534 -0.020109
v -0.521886 -0.772534 -0.020109
v -0.494665 -0.788730 -0.006561
v -0.494665 -0.788730 -0.006561
v -0.494665 -0.788730 -0.006561
v -0.494665 -0.788730 -0.006561
v -0.498656 -0.778933 0.018420
v -0.498656 -0.778933 0.018420
v -0.498656 -0.778933 0.018420
v -0.498656 -0.778933 0.018420
v -0.528400 -0.762820 0.003173
v -0.528400 -0.762820 0.003173
v -0.528400 -0.762820 0.003173
v -0.528400 -0.762820 0.003173
v 0.059495 0.665406 0.709105
v 0.059495 0.665406 0.709105
v 0.059495 0.665406 0.709105
v 0.059495 0.665406 0.709105
v 0.090506 0.652371 0.725874
v 0.090506 0.652371 0.725874
v 0.090506 0.652371 0.725874
v 0.090506 0.652371 0.725874
v 0.104552 0.664751 0.713437
v 0.104552 0.664751 0.713437
v 0.104552 0.664751 0.713437
v 0.104552 0.664751 0.713437
v 0.076307 0.680237 0.699200
v 0.076307 0.680237 0.699200
v 0.076307 0.680237 0.699200
v 0.076307 0.680237 0.699200
v 0.712541 -0.471669 0.399793
v 0.712541 -0.471669 0.399793
v 0.712541 -0.471669 0.399793
v 0.712541 -0.471669 0.399793
v 0.715965 -0.481610 0.374633
v 0.715965 -0.481610 0.374633
v 0.715965 -0.481610 0.374633
v 0.715965 -0.481610 0.374633
v 0.726847 -0.459760 0.387220
v 0.726847 -0.459760 0.387220
v 0.726847 -0.459760 0.387220
v 0.726847 -0.459760 0.387220
v -0.773914 0.333129 -0.334659
v -0.773914 0.333129 -0.334659
v -0.773914 0.333129 -0.334659
v -0.773914 0.333129 -0.334659
v -0.759762 0.346900 -0.347894
v -0.759762 0.346900 -0.347894
v -0.759762 0.346900 -0.347894
v -0.759762 0.346900 -0.347894
v -0.767112 0.322127 -0.357544
v -0.767112 0.322127 -0.357544
v -0.767112 0.322127 -0.357544
v -0.767112 0.322127 -0.357544
vt 0.381749 0.098266
vt 0.574316 0.005477
vt 0.567225 0.188711
vt 0.503388 0.455219
vt 0.599238 0.801223
vt 0.390248 0.682782
vt 0.597064 0.811502
vt 0.378346 0.993421
vt 0.378346 0.802871
vt 0.381770 0.682958
vt 0.383536 0.679736
vt 0.386892 0.680402
vt 0.870050 0.560511
vt 0.867945 0.559749
vt 0.870392 0.556133
vt 0.496575 0.452375
vt 0.165159 0.619893
vt 0.163914 0.617416
vt 0.494383 0.450376
vt 0.165159 0.619893
vt 0.383536 0.679736
vt 0.381368 0.683370
vt 0.162889 0.623499
vt 0.610542 0.799635
vt 0.867945 0.559749
vt 0.870796 0.560972
vt 0.614211 0.800095
vt 0.867945 0.559749
vt 0.663189 0.501785
vt 0.870589 0.555902
vt 0.383536 0.679736
vt 0.496575 0.452375
vt 0.503388 0.455219
vt 0.390248 0.682782
vt 0.659638 0.505394
vt 0.610542 0.799635
vt 0.606049 0.801459
vt 0.655115 0.507399
vt 0.390248 0.682782
vt 0.599238 0.801223
vt 0.597935 0.804951
vt 0.389033 0.686559
vt 0.379841 0.095375
vt 0.572824 0.002385
vt 0.574316 0.005477
vt 0.381749 0.098266
vt 0.381749 0.098266
vt 0.567225 0.188711
vt 0.565960 0.195200
vt 0.380702 0.104861
vt 0.380702 0.104861
vt 0.565960 0.195200
vt 0.503201 0.434705
vt 0.496575 0.452375
vt 0.383536 0.679736
vt 0.165159 0.619893
vt 0.867945 0.559749
vt 0.610542 0.799635
vt 0.659638 0.505394
vt 0.655936 0.504354
vt 0.662992 0.502015
vt 0.659638 0.505394
vt 0.655115 0.507399
vt 0.163914 0.617416
vt 0.165159 0.619893
vt 0.163292 0.623088
vt 0.161240 0.619058
vt 0.613465 0.799634
vt 0.605786 0.803035
vt 0.606049 0.801459
vt 0.610542 0.799635
vt 0.659638 0.505394
vn -0.7838 0.0158 0.6208
vn 0.8719 0.4891 -0.0228
vn -0.1923 -0.3701 0.9089
vn 0.7575 -0.5653 0.3265
vn -0.8031 0.4076 -0.4347
vn -0.0586 -0.6966 -0.7151
vn 0.1139 -0.9186 0.3784
vn -0.5755 0.7910 0.2077
vn -0.2497 0.4149 -0.8749
vn 0.9084 -0.2669 -0.3219
vn 0.5534 0.8017 -0.2259
vn 0.6052 0.1060 0.7890
vn -0.5279 -0.1916 0.8274
vn -0.9522 -0.2618 -0.1572
vn -0.4439 -0.3533 -0.8235
vn 0.3431 -0.8462 -0.4078
vn 0.1019 0.9215 -0.3747
vn 0.4646 0.1308 -0.8758
vn -0.5588 -0.8040 0.2034
vn -0.0610 0.6738 0.7364
s off
f 31/1/1 33/2/1 62/3/1
f 13/4/2 42/5/2 59/6/2
f 38/7/3 27/8/3 49/9/3
f 51/10/4 55/11/4 57/12/4
f 63/13/5 65/14/5 71/15/5
f 1/16/6 22/17/6 18/18/6
f 1/16/6 18/18/6 5/19/6
f 23/20/7 53/21/7 50/22/7
f 23/20/7 50/22/7 25/23/7
f 45/24/8 66/25/8 64/26/8
f 45/24/8 64/26/8 36/27/8
f 67/28/9 8/29/9 72/30/9
f 56/31/10 3/32/10 14/33/10
f 56/31/10 14/33/10 60/34/10
f 12/35/11 48/36/11 44/37/11
f 12/35/11 44/37/11 16/38/11
f 58/39/12 41/40/12 39/41/12
f 58/39/12 39/41/12 52/42/12
f 28/43/13 37/44/13 34/45/13
f 28/43/13 34/45/13 32/46/13
f 30/47/14 61/48/14 69/49/14
f 30/47/14 69/49/14 19/50/14
f 20/51/15 70/52/15 6/53/15
s 1
f 2/54/16 54/55/16 24/56/16
f 68/57/17 47/58/17 10/59/17
f 4/60/18 7/61/18 11/62/18
f 4/60/18 11/62/18 15/63/18
f 17/64/19 21/65/19 26/66/19
f 17/64/19 26/66/19 29/67/19
f 35/68/20 40/69/20 43/70/20
f 35/68/20 43/70/20 46/71/20
f 67/28/9 9/72/9 8/29/9
