# Blender v3.4.1 OBJ File: ''
# www.blender.org
o defaultMaterial
v 0.414214 -0.189419 -0.414214
v 0.000000 -0.622376 0.000000
v -0.000000 -0.189419 -0.585786
v 0.414214 0.243538 -1.000000
v 0.414214 -0.189419 -0.414214
v 0.414214 0.243538 -1.000000
v 1.000000 0.243538 -0.414214
v 1.000000 0.243538 -0.414214
v 0.414214 0.243538 -1.000000
v 0.662742 0.432957 -0.662742
v 0.662742 0.432957 -0.662742
v 0.414214 0.243538 -1.000000
v -0.000000 0.432957 -0.937258
v 0.248528 0.622376 -0.600000
v 0.662742 0.432957 -0.662742
v 0.248528 0.622376 -0.600000
v 0.600000 0.622376 -0.248528
v 0.585786 -0.189419 -0.000000
v 0.000000 -0.622376 0.000000
v 0.414214 -0.189419 -0.414214
v 1.000000 0.243538 -0.414214
v 0.585786 -0.189419 -0.000000
v 1.000000 0.243538 -0.414214
v 1.000000 0.243538 0.414214
v 1.000000 0.243538 0.414214
v 1.000000 0.243538 -0.414214
v 0.937258 0.432957 -0.000000
v 0.937258 0.432957 -0.000000
v 1.000000 0.243538 -0.414214
v 0.662742 0.432957 -0.662742
v 0.600000 0.622376 -0.248528
v 0.937258 0.432957 -0.000000
v 0.600000 0.622376 -0.248528
v 0.600000 0.622376 0.248528
v 0.414214 -0.189419 0.414214
v 0.000000 -0.622376 0.000000
v 0.585786 -0.189419 -0.000000
v 1.000000 0.243538 0.414214
v 0.414214 -0.189419 0.414214
v 1.000000 0.243538 0.414214
v 0.414214 0.243538 1.000000
v 0.414214 0.243538 1.000000
v 1.000000 0.243538 0.414214
v 0.662742 0.432957 0.662742
v 0.662742 0.432957 0.662742
v 1.000000 0.243538 0.414214
v 0.937258 0.432957 -0.000000
v 0.600000 0.622376 0.248528
v 0.662742 0.432957 0.662742
v 0.600000 0.622376 0.248528
v 0.248528 0.622376 0.600000
v 0.000000 -0.189419 0.585786
v 0.000000 -0.622376 0.000000
v 0.414214 -0.189419 0.414214
v 0.414214 0.243538 1.000000
v 0.000000 -0.189419 0.585786
v 0.414214 0.243538 1.000000
v -0.414214 0.243538 1.000000
v -0.414214 0.243538 1.000000
v 0.414214 0.243538 1.000000
v 0.000000 0.432957 0.937258
v 0.000000 0.432957 0.937258
v 0.414214 0.243538 1.000000
v 0.662742 0.432957 0.662742
v 0.248528 0.622376 0.600000
v 0.000000 0.432957 0.937258
v 0.248528 0.622376 0.600000
v -0.248528 0.622376 0.600000
v -0.414214 -0.189419 0.414214
v 0.000000 -0.622376 0.000000
v 0.000000 -0.189419 0.585786
v -0.414214 0.243538 1.000000
v -0.414214 -0.189419 0.414214
v -0.414214 0.243538 1.000000
v -1.000000 0.243538 0.414214
v -1.000000 0.243538 0.414214
v -0.414214 0.243538 1.000000
v -0.662742 0.432957 0.662742
v -0.662742 0.432957 0.662742
v -0.414214 0.243538 1.000000
v 0.000000 0.432957 0.937258
v -0.248528 0.622376 0.600000
v -0.662742 0.432957 0.662742
v -0.248528 0.622376 0.600000
v -0.600000 0.622376 0.248528
v -0.585786 -0.189419 0.000000
v 0.000000 -0.622376 0.000000
v -0.414214 -0.189419 0.414214
v -1.000000 0.243538 0.414214
v -0.585786 -0.189419 0.000000
v -1.000000 0.243538 0.414214
v -1.000000 0.243538 -0.414214
v -1.000000 0.243538 -0.414214
v -1.000000 0.243538 0.414214
v -0.937258 0.432957 0.000000
v -0.937258 0.432957 0.000000
v -1.000000 0.243538 0.414214
v -0.662742 0.432957 0.662742
v -0.600000 0.622376 0.248528
v -0.937258 0.432957 0.000000
v -0.600000 0.622376 0.248528
v -0.600000 0.622376 -0.248528
v -0.414214 -0.189419 -0.414214
v 0.000000 -0.622376 0.000000
v -0.585786 -0.189419 0.000000
v -1.000000 0.243538 -0.414214
v -0.414214 -0.189419 -0.414214
v -1.000000 0.243538 -0.414214
v -0.414214 0.243538 -1.000000
v -0.414214 0.243538 -1.000000
v -1.000000 0.243538 -0.414214
v -0.662742 0.432957 -0.662742
v -0.662742 0.432957 -0.662742
v -1.000000 0.243538 -0.414214
v -0.937258 0.432957 0.000000
v -0.600000 0.622376 -0.248528
v -0.662742 0.432957 -0.662742
v -0.600000 0.622376 -0.248528
v -0.248528 0.622376 -0.600000
v -0.000000 -0.189419 -0.585786
v 0.000000 -0.622376 0.000000
v -0.414214 -0.189419 -0.414214
v -0.414214 0.243538 -1.000000
v -0.000000 -0.189419 -0.585786
v -0.414214 0.243538 -1.000000
v 0.414214 0.243538 -1.000000
v 0.414214 0.243538 -1.000000
v -0.414214 0.243538 -1.000000
v -0.000000 0.432957 -0.937258
v -0.000000 0.432957 -0.937258
v -0.414214 0.243538 -1.000000
v -0.662742 0.432957 -0.662742
v -0.248528 0.622376 -0.600000
v -0.000000 0.432957 -0.937258
v -0.248528 0.622376 -0.600000
v 0.248528 0.622376 -0.600000
v 0.248528 0.622376 -0.600000
v -0.248528 0.622376 -0.600000
v 0.000000 0.622376 0.000000
v 0.600000 0.622376 -0.248528
v 0.600000 0.622376 0.248528
v 0.248528 0.622376 0.600000
v -0.248528 0.622376 0.600000
v -0.600000 0.622376 0.248528
v -0.600000 0.622376 -0.248528
vt 0.026278 0.812089
vt 0.212212 0.791701
vt 0.308732 0.695305
vt 0.212212 0.791701
vt 0.026278 0.812089
vt 0.191585 0.977609
vt 0.975578 0.410586
vt 0.975725 0.181877
vt 0.925527 0.296199
vt 0.835733 0.239759
vt 0.925527 0.296199
vt 0.975725 0.181877
vt 0.859450 0.136386
vt 0.925527 0.296199
vt 0.835733 0.239759
vt 0.835660 0.352524
vt 0.191585 0.977609
vt 0.308645 0.831717
vt 0.308732 0.695305
vt 0.212212 0.791701
vt 0.308645 0.831717
vt 0.191585 0.977609
vt 0.425516 0.977759
vt 0.813753 0.572203
vt 0.975578 0.410586
vt 0.859245 0.455928
vt 0.835660 0.352524
vt 0.859245 0.455928
vt 0.975578 0.410586
vt 0.925527 0.296199
vt 0.859245 0.455928
vt 0.835660 0.352524
vt 0.755872 0.432210
vt 0.425516 0.977759
vt 0.405128 0.791825
vt 0.308732 0.695305
vt 0.308645 0.831717
vt 0.405128 0.791825
vt 0.425516 0.977759
vt 0.591036 0.812452
vt 0.585045 0.572056
vt 0.813753 0.572203
vt 0.699431 0.522004
vt 0.755872 0.432210
vt 0.699431 0.522004
vt 0.813753 0.572203
vt 0.859245 0.455928
vt 0.699431 0.522004
vt 0.755872 0.432210
vt 0.643106 0.432137
vt 0.308732 0.695305
vt 0.405128 0.791825
vt 0.591036 0.812452
vt 0.445145 0.695393
vt 0.591036 0.812452
vt 0.591187 0.578521
vt 0.423428 0.410230
vt 0.585045 0.572056
vt 0.539703 0.455722
vt 0.643106 0.432137
vt 0.539703 0.455722
vt 0.585045 0.572056
vt 0.699431 0.522004
vt 0.539703 0.455722
vt 0.643106 0.432137
vt 0.563421 0.352349
vt 0.591187 0.578521
vt 0.405252 0.598909
vt 0.308732 0.695305
vt 0.405252 0.598909
vt 0.591187 0.578521
vt 0.425879 0.413001
vt 0.423575 0.181522
vt 0.423428 0.410230
vt 0.473626 0.295909
vt 0.563421 0.352349
vt 0.473626 0.295909
vt 0.423428 0.410230
vt 0.539703 0.455722
vt 0.473626 0.295909
vt 0.563421 0.352349
vt 0.563493 0.239584
vt 0.425879 0.413001
vt 0.308820 0.558893
vt 0.308732 0.695305
vt 0.405252 0.598909
vt 0.308820 0.558893
vt 0.425879 0.413001
vt 0.191949 0.412851
vt 0.585400 0.019905
vt 0.423575 0.181522
vt 0.539908 0.136180
vt 0.563493 0.239584
vt 0.539908 0.136180
vt 0.423575 0.181522
vt 0.473626 0.295909
vt 0.539908 0.136180
vt 0.563493 0.239584
vt 0.643282 0.159898
vt 0.191949 0.412851
vt 0.212336 0.598785
vt 0.308732 0.695305
vt 0.308820 0.558893
vt 0.212336 0.598785
vt 0.191949 0.412851
vt 0.026428 0.578158
vt 0.814108 0.020052
vt 0.585400 0.019905
vt 0.699722 0.070104
vt 0.643282 0.159898
vt 0.699722 0.070104
vt 0.585400 0.019905
vt 0.539908 0.136180
vt 0.699722 0.070104
vt 0.643282 0.159898
vt 0.756047 0.159970
vt 0.308732 0.695305
vt 0.212336 0.598785
vt 0.026428 0.578158
vt 0.172320 0.695217
vt 0.026428 0.578158
vt 0.026278 0.812089
vt 0.975725 0.181877
vt 0.814108 0.020052
vt 0.859450 0.136386
vt 0.756047 0.159970
vt 0.859450 0.136386
vt 0.814108 0.020052
vt 0.699722 0.070104
vt 0.859450 0.136386
vt 0.756047 0.159970
vt 0.835733 0.239759
vt 0.835733 0.239759
vt 0.756047 0.159970
vt 0.699577 0.296054
vt 0.835660 0.352524
vt 0.755872 0.432210
vt 0.643106 0.432137
vt 0.563421 0.352349
vt 0.563493 0.239584
vt 0.643282 0.159898
vt 0.172320 0.695217
vt 0.445145 0.695393
vt 0.445145 0.695393
vt 0.172320 0.695217
vn 0.2391 -0.7809 -0.5771
vn 0.5109 -0.6913 -0.5109
vn 0.6712 0.3144 -0.6712
vn 0.2520 0.7526 -0.6084
vn 0.3463 0.8719 -0.3463
vn 0.5771 -0.7809 -0.2391
vn 0.7226 -0.6913 0.0000
vn 0.9493 0.3144 0.0000
vn 0.6084 0.7526 -0.2520
vn 0.4897 0.8719 0.0000
vn 0.5771 -0.7809 0.2391
vn 0.5109 -0.6913 0.5109
vn 0.6712 0.3144 0.6712
vn 0.6084 0.7526 0.2520
vn 0.3463 0.8719 0.3463
vn 0.2391 -0.7809 0.5771
vn 0.0000 -0.6913 0.7226
vn 0.0000 0.3144 0.9493
vn 0.2520 0.7526 0.6084
vn 0.0000 0.8719 0.4897
vn -0.2391 -0.7809 0.5771
vn -0.5109 -0.6913 0.5109
vn -0.6712 0.3144 0.6712
vn -0.2520 0.7526 0.6084
vn -0.3463 0.8719 0.3463
vn -0.5771 -0.7809 0.2391
vn -0.7226 -0.6913 0.0000
vn -0.9493 0.3144 0.0000
vn -0.6084 0.7526 0.2520
vn -0.4897 0.8719 0.0000
vn -0.5771 -0.7809 -0.2391
vn -0.5109 -0.6913 -0.5109
vn -0.6712 0.3144 -0.6712
vn -0.6084 0.7526 -0.2520
vn -0.3463 0.8719 -0.3463
vn -0.2391 -0.7809 -0.5771
vn 0.0000 -0.6913 -0.7226
vn 0.0000 0.3144 -0.9493
vn -0.2520 0.7526 -0.6084
vn 0.0000 0.8719 -0.4897
vn 0.0000 1.0000 0.0000
s off
f 4/1/1 1/2/1 2/3/1
f 5/4/2 6/5/2 7/6/2
f 8/7/3 9/8/3 10/9/3
f 14/10/4 11/11/4 12/12/4
f 12/12/4 13/13/4 14/10/4
f 15/14/5 16/15/5 17/16/5
f 21/17/6 18/18/6 19/19/6
f 19/19/6 20/20/6 21/17/6
f 22/21/7 23/22/7 24/23/7
f 25/24/8 26/25/8 27/26/8
f 31/27/9 28/28/9 29/29/9
f 29/29/9 30/30/9 31/27/9
f 32/31/10 33/32/10 34/33/10
f 38/34/11 35/35/11 36/36/11
f 36/36/11 37/37/11 38/34/11
f 39/38/12 40/39/12 41/40/12
f 42/41/13 43/42/13 44/43/13
f 48/44/14 45/45/14 46/46/14
f 46/46/14 47/47/14 48/44/14
f 49/48/15 50/49/15 51/50/15
f 53/51/16 54/52/16 55/53/16
f 56/54/17 57/55/17 58/56/17
f 59/57/18 60/58/18 61/59/18
f 65/60/19 62/61/19 63/62/19
f 63/62/19 64/63/19 65/60/19
f 66/64/20 67/65/20 68/66/20
f 72/67/21 69/68/21 70/69/21
f 73/70/22 74/71/22 75/72/22
f 76/73/23 77/74/23 78/75/23
f 82/76/24 79/77/24 80/78/24
f 80/78/24 81/79/24 82/76/24
f 83/80/25 84/81/25 85/82/25
f 89/83/26 86/84/26 87/85/26
f 87/85/26 88/86/26 89/83/26
f 90/87/27 91/88/27 92/89/27
f 93/90/28 94/91/28 95/92/28
f 99/93/29 96/94/29 97/95/29
f 97/95/29 98/96/29 99/93/29
f 100/97/30 101/98/30 102/99/30
f 106/100/31 103/101/31 104/102/31
f 104/102/31 105/103/31 106/100/31
f 107/104/32 108/105/32 109/106/32
f 110/107/33 111/108/33 112/109/33
f 116/110/34 113/111/34 114/112/34
f 114/112/34 115/113/34 116/110/34
f 117/114/35 118/115/35 119/116/35
f 121/117/36 122/118/36 123/119/36
f 124/120/37 125/121/37 126/122/37
f 127/123/38 128/124/38 129/125/38
f 133/126/39 130/127/39 131/128/39
f 131/128/39 132/129/39 133/126/39
f 134/130/40 135/131/40 136/132/40
f 137/133/41 138/134/41 139/135/41
f 139/135/41 140/136/41 137/133/41
f 139/135/41 141/137/41 140/136/41
f 139/135/41 142/138/41 141/137/41
f 139/135/41 143/139/41 142/138/41
f 139/135/41 144/140/41 143/139/41
f 139/135/41 145/141/41 144/140/41
f 139/135/41 138/134/41 145/141/41
s 1
f 2/3/1 3/142/1 4/1/1
f 55/53/16 52/143/16 53/51/16
f 70/69/21 71/144/21 72/67/21
f 123/119/36 120/145/36 121/117/36
