# Blender v3.4.1 OBJ File: ''
# www.blender.org
o Icosphere.001_Icosphere.002
v -0.024877 -0.019769 -0.072547
v 0.698723 0.533016 0.453173
v -0.301262 0.533016 0.778093
v -0.919302 0.533016 -0.072547
v -0.301262 0.533016 -0.923187
v 0.698723 0.533016 -0.598267
v -0.301332 2.561794 0.778071
v -0.919292 2.561795 -0.072616
v -0.301210 2.561795 -0.923204
v 0.698755 2.561795 -0.598221
v 0.698690 2.561795 0.453236
v -0.024877 3.114579 -0.072547
vt 0.181819 0.000000
vt 0.272728 0.157461
vt 0.090910 0.157461
vt 0.363637 0.000000
vt 0.454546 0.157461
vt 0.909091 0.000000
vt 1.000000 0.157461
vt 0.818182 0.157461
vt 0.727273 0.000000
vt 0.636364 0.157461
vt 0.545455 0.000000
vt 0.363637 0.419896
vt 0.181820 0.419896
vt 0.727273 0.419897
vt 0.545454 0.419897
vt 0.272729 0.577357
vt 0.000000 0.419897
vt 0.090910 0.577358
vt 0.909091 0.419896
vt 0.818182 0.577357
vt 0.636364 0.577358
vt 0.454545 0.577357
vn 0.1876 -0.7947 0.5774
vn 0.6071 -0.7947 -0.0000
vn -0.4911 -0.7947 0.3568
vn -0.4911 -0.7947 -0.3568
vn 0.1876 -0.7947 -0.5774
vn 0.3090 -0.0000 0.9511
vn 0.3091 0.0000 -0.9510
vn 1.0000 0.0000 0.0000
vn 0.1875 0.7947 0.5774
vn -0.4912 0.7947 0.3568
vn -0.4911 0.7947 -0.3569
vn 0.1876 0.7947 -0.5773
vn 0.6071 0.7947 0.0000
vn -0.8090 0.0000 0.5878
vn -0.8090 -0.0000 -0.5878
s off
f 1/1/1 2/2/1 3/3/1
f 2/2/2 1/4/2 6/5/2
f 1/6/3 3/7/3 4/8/3
f 1/9/4 4/8/4 5/10/4
f 1/11/5 5/10/5 6/5/5
f 2/2/6 11/12/6 7/13/6 3/3/6
f 5/10/7 9/14/7 10/15/7 6/5/7
f 6/5/8 10/15/8 11/12/8 2/2/8
f 7/13/9 11/12/9 12/16/9
f 8/17/10 7/13/10 12/18/10
f 9/14/11 8/19/11 12/20/11
f 10/15/12 9/14/12 12/21/12
f 11/12/13 10/15/13 12/22/13
f 3/3/14 7/13/14 8/19/14 4/8/14
f 4/8/15 8/19/15 9/14/15 5/10/15
