# Blender v3.4.1 OBJ File: ''
# www.blender.org
o Cube_Cube.002
v 0.014949 0.021980 -0.493316
v 0.014949 0.021980 -0.493316
v 0.014949 0.021980 -0.493316
v 0.014949 0.021980 -0.493316
v 0.445743 0.259230 -0.511015
v 0.445743 0.259230 -0.511015
v 0.445743 0.259230 -0.511015
v 0.445743 0.259230 -0.511015
v 0.445743 0.259230 -0.511015
v 0.471121 0.358839 -0.476309
v 0.471121 0.358839 -0.476309
v 0.471121 0.358839 -0.476309
v 0.471121 0.358839 -0.476309
v 0.542833 0.300647 -0.404457
v 0.542833 0.300647 -0.404457
v 0.542833 0.300647 -0.404457
v 0.542833 0.300647 -0.404457
v 0.503346 0.200139 -0.450107
v 0.503346 0.200139 -0.450107
v 0.503346 0.200139 -0.450107
v 0.503346 0.200139 -0.450107
v 0.213868 -0.376856 -0.431844
v 0.213868 -0.376856 -0.431844
v 0.213868 -0.376856 -0.431844
v 0.213868 -0.376856 -0.431844
v 0.213868 -0.376856 -0.431844
v 0.271890 -0.366849 -0.371431
v 0.271890 -0.366849 -0.371431
v 0.271890 -0.366849 -0.371431
v 0.271890 -0.366849 -0.371431
v 0.214628 -0.435613 -0.260538
v 0.214628 -0.435613 -0.260538
v 0.214628 -0.435613 -0.260538
v 0.214628 -0.435613 -0.260538
v 0.120921 -0.455860 -0.345906
v 0.120921 -0.455860 -0.345906
v 0.120921 -0.455860 -0.345906
v 0.120921 -0.455860 -0.345906
v 0.426695 0.312752 0.572645
v 0.426695 0.312752 0.572645
v 0.426695 0.312752 0.572645
v 0.426695 0.312752 0.572645
v 0.511655 0.244809 0.531044
v 0.511655 0.244809 0.531044
v 0.511655 0.244809 0.531044
v 0.511655 0.244809 0.531044
v 0.511655 0.244809 0.531044
v 0.572795 0.316612 0.435506
v 0.572795 0.316612 0.435506
v 0.572795 0.316612 0.435506
v 0.572795 0.316612 0.435506
v 0.504010 0.373015 0.507684
v 0.504010 0.373015 0.507684
v 0.504010 0.373015 0.507684
v 0.504010 0.373015 0.507684
v -0.587195 0.282485 -0.491046
v -0.587195 0.282485 -0.491046
v -0.587195 0.282485 -0.491046
v -0.587195 0.282485 -0.491046
v -0.587195 0.282485 -0.491046
v -0.516854 0.379968 -0.507667
v -0.516854 0.379968 -0.507667
v -0.516854 0.379968 -0.507667
v -0.516854 0.379968 -0.507667
v -0.479668 0.276111 -0.534231
v -0.479668 0.276111 -0.534231
v -0.479668 0.276111 -0.534231
v -0.479668 0.276111 -0.534231
v -0.479668 0.276111 -0.534231
v -0.540081 -0.451670 -0.182292
v -0.540081 -0.451670 -0.182292
v -0.540081 -0.451670 -0.182292
v -0.540081 -0.451670 -0.182292
v -0.555221 -0.388437 -0.267427
v -0.555221 -0.388437 -0.267427
v -0.555221 -0.388437 -0.267427
v -0.555221 -0.388437 -0.267427
v -0.446336 -0.440887 -0.300730
v -0.446336 -0.440887 -0.300730
v -0.446336 -0.440887 -0.300730
v -0.446336 -0.440887 -0.300730
v -0.436389 -0.508182 -0.231299
v -0.436389 -0.508182 -0.231299
v -0.436389 -0.508182 -0.231299
v -0.436389 -0.508182 -0.231299
v -0.436389 -0.508182 -0.231299
v -0.346551 -0.407679 0.338287
v -0.346551 -0.407679 0.338287
v -0.346551 -0.407679 0.338287
v -0.346551 -0.407679 0.338287
v -0.363489 -0.344632 0.420374
v -0.363489 -0.344632 0.420374
v -0.363489 -0.344632 0.420374
v -0.363489 -0.344632 0.420374
v -0.437768 -0.356829 0.361892
v -0.437768 -0.356829 0.361892
v -0.437768 -0.356829 0.361892
v -0.437768 -0.356829 0.361892
v -0.741386 0.302907 0.652517
v -0.741386 0.302907 0.652517
v -0.741386 0.302907 0.652517
v -0.741386 0.302907 0.652517
v -0.635879 0.282692 0.704815
v -0.635879 0.282692 0.704815
v -0.635879 0.282692 0.704815
v -0.635879 0.282692 0.704815
v -0.585754 0.383624 0.723016
v -0.585754 0.383624 0.723016
v -0.585754 0.383624 0.723016
v -0.585754 0.383624 0.723016
v -0.697795 0.450813 0.682023
v -0.697795 0.450813 0.682023
v -0.697795 0.450813 0.682023
v -0.697795 0.450813 0.682023
v -0.775284 0.406845 0.627074
v -0.775284 0.406845 0.627074
v -0.775284 0.406845 0.627074
v -0.775284 0.406845 0.627074
v 0.052905 0.615330 0.554970
v 0.052905 0.615330 0.554970
v 0.052905 0.615330 0.554970
v 0.052905 0.615330 0.554970
v -0.059300 0.628740 0.569856
v -0.059300 0.628740 0.569856
v -0.059300 0.628740 0.569856
v -0.059300 0.628740 0.569856
v 0.000191 0.549114 0.621395
v 0.000191 0.549114 0.621395
v 0.000191 0.549114 0.621395
v 0.000191 0.549114 0.621395
v 0.000191 0.549114 0.621395
v 0.652839 0.558879 -0.056915
v 0.652839 0.558879 -0.056915
v 0.652839 0.558879 -0.056915
v 0.652839 0.558879 -0.056915
v 0.599713 0.664370 -0.046682
v 0.599713 0.664370 -0.046682
v 0.599713 0.664370 -0.046682
v 0.599713 0.664370 -0.046682
v 0.603312 0.666623 0.049329
v 0.603312 0.666623 0.049329
v 0.603312 0.666623 0.049329
v 0.603312 0.666623 0.049329
v 0.657676 0.564861 0.058339
v 0.657676 0.564861 0.058339
v 0.657676 0.564861 0.058339
v 0.657676 0.564861 0.058339
v 0.129218 -0.387348 0.303096
v 0.129218 -0.387348 0.303096
v 0.129218 -0.387348 0.303096
v 0.129218 -0.387348 0.303096
v 0.250601 -0.320053 0.329930
v 0.250601 -0.320053 0.329930
v 0.250601 -0.320053 0.329930
v 0.250601 -0.320053 0.329930
v 0.250601 -0.320053 0.329930
v 0.250601 -0.320053 0.329930
v 0.120048 -0.318449 0.397814
v 0.120048 -0.318449 0.397814
v 0.120048 -0.318449 0.397814
v 0.120048 -0.318449 0.397814
v -0.853814 0.767054 0.058577
v -0.853814 0.767054 0.058577
v -0.853814 0.767054 0.058577
v -0.853814 0.767054 0.058577
v -0.784599 0.848341 0.050405
v -0.784599 0.848341 0.050405
v -0.784599 0.848341 0.050405
v -0.784599 0.848341 0.050405
v -0.766497 0.838590 -0.040325
v -0.766497 0.838590 -0.040325
v -0.766497 0.838590 -0.040325
v -0.766497 0.838590 -0.040325
v -0.837087 0.745170 -0.046772
v -0.837087 0.745170 -0.046772
v -0.837087 0.745170 -0.046772
v -0.837087 0.745170 -0.046772
v -0.052982 0.611644 -0.550481
v -0.052982 0.611644 -0.550481
v -0.052982 0.611644 -0.550481
v -0.052982 0.611644 -0.550481
v 0.050720 0.608749 -0.547736
v 0.050720 0.608749 -0.547736
v 0.050720 0.608749 -0.547736
v 0.050720 0.608749 -0.547736
v 0.001823 0.537521 -0.595014
v 0.001823 0.537521 -0.595014
v 0.001823 0.537521 -0.595014
v 0.001823 0.537521 -0.595014
v 0.001823 0.537521 -0.595014
v 0.343297 -0.325614 -0.059991
v 0.343297 -0.325614 -0.059991
v 0.343297 -0.325614 -0.059991
v 0.263307 -0.374932 0.057948
v 0.263307 -0.374932 0.057948
v 0.263307 -0.374932 0.057948
v 0.263307 -0.374932 0.057948
v 0.263307 -0.374932 0.057948
v 0.055947 0.920178 -0.052559
v 0.055947 0.920178 -0.052559
v 0.055947 0.920178 -0.052559
v 0.055947 0.920178 -0.052559
v -0.059673 0.938867 -0.051451
v -0.059673 0.938867 -0.051451
v -0.059673 0.938867 -0.051451
v -0.059673 0.938867 -0.051451
v -0.059670 0.939306 0.051710
v -0.059670 0.939306 0.051710
v -0.059670 0.939306 0.051710
v -0.059670 0.939306 0.051710
v 0.055909 0.920663 0.052791
v 0.055909 0.920663 0.052791
v 0.055909 0.920663 0.052791
v 0.055909 0.920663 0.052791
v -0.039496 -0.012513 0.642327
v -0.039496 -0.012513 0.642327
v -0.039496 -0.012513 0.642327
v -0.039496 -0.012513 0.642327
v 0.074251 -0.002493 0.642535
v 0.074251 -0.002493 0.642535
v 0.074251 -0.002493 0.642535
v 0.074251 -0.002493 0.642535
v 0.001638 0.072626 0.681130
v 0.001638 0.072626 0.681130
v 0.001638 0.072626 0.681130
v 0.001638 0.072626 0.681130
v 0.001638 0.072626 0.681130
v -0.926245 -0.018930 0.033463
v -0.926245 -0.018930 0.033463
v -0.926245 -0.018930 0.033463
v -0.926245 -0.018930 0.033463
v -0.958154 0.095471 0.059582
v -0.958154 0.095471 0.059582
v -0.958154 0.095471 0.059582
v -0.958154 0.095471 0.059582
v -0.949422 0.022472 -0.045616
v -0.949422 0.022472 -0.045616
v -0.949422 0.022472 -0.045616
v -0.949422 0.022472 -0.045616
v -0.949422 0.022472 -0.045616
v -0.051809 -0.529528 -0.034080
v -0.051809 -0.529528 -0.034080
v -0.051809 -0.529528 -0.034080
v -0.051809 -0.529528 -0.034080
v 0.071828 -0.496630 -0.001991
v 0.071828 -0.496630 -0.001991
v 0.071828 -0.496630 -0.001991
v 0.071828 -0.496630 -0.001991
v 0.668240 0.110381 0.058339
v 0.668240 0.110381 0.058339
v 0.668240 0.110381 0.058339
v 0.668240 0.110381 0.058339
v 0.624004 -0.007519 0.052180
v 0.624004 -0.007519 0.052180
v 0.624004 -0.007519 0.052180
v 0.624004 -0.007519 0.052180
v 0.623899 -0.004045 -0.050644
v 0.623899 -0.004045 -0.050644
v 0.623899 -0.004045 -0.050644
v 0.623899 -0.004045 -0.050644
v 0.663284 0.109547 -0.056915
v 0.663284 0.109547 -0.056915
v 0.663284 0.109547 -0.056915
v 0.663284 0.109547 -0.056915
vt 0.568393 0.265078
vt 0.609762 0.375000
vt 0.500000 0.375000
vt 0.575351 0.019540
vt 0.611478 0.115164
vt 0.515854 0.115164
vt 0.333558 0.739632
vt 0.552540 0.750000
vt 0.489825 0.850595
vt 0.513931 0.875000
vt 0.611754 0.875000
vt 0.574805 0.972849
vt 0.521055 0.638235
vt 0.606623 0.638236
vt 0.574295 0.723803
vt 0.275958 0.625000
vt 0.354623 0.645694
vt 0.345788 0.742943
vt 0.142398 0.562380
vt 0.291026 0.523679
vt 0.235153 0.616360
vt 0.500000 0.375000
vt 0.609762 0.375000
vt 0.568146 0.484525
vt 0.574784 0.777207
vt 0.611754 0.875000
vt 0.513931 0.875000
vt 0.506745 0.135840
vt 0.570761 0.238728
vt 0.403865 0.195692
vt 0.506745 0.135840
vt 0.609651 0.135857
vt 0.570761 0.238728
vt 0.574034 0.526547
vt 0.605996 0.611146
vt 0.521397 0.611146
vt 0.319848 0.501401
vt 0.301798 0.538921
vt 0.291026 0.523679
vt 0.570761 0.238728
vt 0.577774 0.250000
vt 0.568842 0.247698
vt 0.145448 0.732357
vt 0.138816 0.750000
vt 0.125000 0.738991
vt 0.625000 0.875000
vt 0.622301 0.882145
vt 0.611754 0.875000
vt 0.298048 0.731583
vt 0.325218 0.750000
vt 0.295968 0.750000
vt 0.738540 0.614117
vt 0.758957 0.635130
vt 0.738627 0.635830
vt 0.491734 0.869088
vt 0.489825 0.850595
vt 0.504167 0.868303
vt 0.493326 0.118839
vt 0.515854 0.115164
vt 0.506745 0.135840
vt 0.609651 0.135857
vt 0.506745 0.135840
vt 0.515854 0.115164
vt 0.611478 0.115164
vt 0.606623 0.638236
vt 0.521055 0.638235
vt 0.521397 0.611146
vt 0.605996 0.611146
vt 0.493223 0.610207
vt 0.389791 0.603716
vt 0.390632 0.476370
vt 0.552075 0.510283
vt 0.597164 0.738925
vt 0.632350 0.636088
vt 0.738627 0.635830
vt 0.734930 0.739218
vt 0.865505 0.741076
vt 0.759581 0.739725
vt 0.758957 0.635130
vt 0.866069 0.633846
vt 0.389096 0.982047
vt 0.389930 0.828636
vt 0.489146 0.881967
vt 0.550015 0.986279
vt 0.493326 0.118839
vt 0.386291 0.174160
vt 0.387968 0.015931
vt 0.555185 0.011316
vt 0.145448 0.732357
vt 0.142398 0.562380
vt 0.235153 0.616360
vt 0.298048 0.731583
vt 0.759350 0.614726
vt 0.761173 0.510213
vt 0.863783 0.509361
vt 0.865493 0.615469
vt 0.345743 0.737575
vt 0.356836 0.648751
vt 0.489699 0.638640
vt 0.552540 0.750000
vt 0.738540 0.614117
vt 0.632329 0.613773
vt 0.597573 0.511213
vt 0.734528 0.510807
vt 0.352766 0.517556
vt 0.353004 0.649244
vt 0.275958 0.625000
vt 0.500000 0.375000
vt 0.390572 0.440848
vt 0.389441 0.222494
vt 0.568393 0.265078
vt 0.568146 0.484525
vt 0.577699 0.499878
vt 0.577774 0.500000
vt 0.553045 0.493929
vt 0.322659 0.504252
vt 0.563179 0.750000
vt 0.552540 0.750000
vt 0.565372 0.730067
vt 0.577774 0.750000
vt 0.126834 0.553322
vt 0.125000 0.552255
vt 0.143982 0.547301
vt 0.142398 0.562380
vt 0.568664 0.014643
vt 0.555185 0.011316
vt 0.543811 0.000000
vt 0.559910 0.000000
vt 0.576428 0.002164
vt 0.605996 0.611146
vt 0.632329 0.613773
vt 0.632350 0.636088
vt 0.606623 0.638236
vt 0.611478 0.115164
vt 0.621635 0.116094
vt 0.622058 0.125000
vt 0.607546 0.125000
vt 0.621122 0.364734
vt 0.622184 0.375000
vt 0.609762 0.375000
vt 0.759350 0.614726
vt 0.521055 0.638235
vt 0.489699 0.638640
vt 0.493223 0.610207
vt 0.521397 0.611146
vt 0.142398 0.562380
vt 0.145448 0.732357
vt 0.125000 0.738991
vt 0.125000 0.577282
vt 0.291026 0.523679
vt 0.142398 0.562380
vt 0.143982 0.547301
vt 0.319848 0.501401
vt 0.552075 0.510283
vt 0.390632 0.476370
vt 0.390572 0.440848
vt 0.568146 0.484525
vt 0.384179 0.000000
vt 0.543811 0.000000
vt 0.555185 0.011316
vt 0.387968 0.015931
vt 0.568393 0.265078
vt 0.389441 0.222494
vt 0.403865 0.195692
vt 0.570761 0.238728
vt 0.582381 0.762192
vt 0.621151 0.864813
vt 0.611754 0.875000
vt 0.574784 0.777207
vt 0.622301 0.882145
vt 0.582043 0.988700
vt 0.574805 0.972849
vt 0.611754 0.875000
vt 0.597573 0.511213
vt 0.632329 0.613773
vt 0.605996 0.611146
vt 0.574034 0.526547
vt 0.632350 0.636088
vt 0.597164 0.738925
vt 0.574295 0.723803
vt 0.606623 0.638236
vt 0.145448 0.732357
vt 0.298048 0.731583
vt 0.295968 0.750000
vt 0.138816 0.750000
vt 0.581575 0.010061
vt 0.621635 0.116094
vt 0.611478 0.115164
vt 0.575351 0.019540
vt 0.620489 0.136939
vt 0.580936 0.241630
vt 0.570761 0.238728
vt 0.609651 0.135857
vt 0.581991 0.261160
vt 0.621122 0.364734
vt 0.609762 0.375000
vt 0.568393 0.265078
vt 0.620911 0.385822
vt 0.582334 0.487930
vt 0.568146 0.484525
vt 0.609762 0.375000
vt 0.353004 0.649244
vt 0.352766 0.517556
vt 0.390632 0.476370
vt 0.389791 0.603716
vt 0.761173 0.510213
vt 0.759350 0.614726
vt 0.738540 0.614117
vt 0.734528 0.510807
vt 0.866069 0.633846
vt 0.758957 0.635130
vt 0.759350 0.614726
vt 0.865493 0.615469
vt 0.734930 0.739218
vt 0.738627 0.635830
vt 0.758957 0.635130
vt 0.759581 0.739725
vt 0.632329 0.613773
vt 0.738540 0.614117
vt 0.738627 0.635830
vt 0.632350 0.636088
vt 0.550015 0.986279
vt 0.489146 0.881967
vt 0.513931 0.875000
vt 0.574805 0.972849
vt 0.333558 0.739632
vt 0.489825 0.850595
vt 0.491734 0.869088
vt 0.354539 0.770970
vt 0.575351 0.019540
vt 0.515854 0.115164
vt 0.493326 0.118839
vt 0.555185 0.011316
vt 0.298048 0.731583
vt 0.235153 0.616360
vt 0.275958 0.625000
vt 0.345788 0.742943
vt 0.389791 0.603716
vt 0.493223 0.610207
vt 0.489699 0.638640
vt 0.356836 0.648751
vt 0.489825 0.850595
vt 0.552540 0.750000
vt 0.574784 0.777207
vt 0.513931 0.875000
vt 0.386291 0.174160
vt 0.493326 0.118839
vt 0.506745 0.135840
vt 0.403865 0.195692
vt 0.235153 0.616360
vt 0.291026 0.523679
vt 0.301798 0.538921
vt 0.255566 0.615751
vt 0.493223 0.610207
vt 0.552075 0.510283
vt 0.574034 0.526547
vt 0.521397 0.611146
vt 0.552540 0.750000
vt 0.489699 0.638640
vt 0.521055 0.638235
vt 0.574295 0.723803
vt 0.500000 0.375000
vt 0.568146 0.484525
vt 0.390572 0.440848
vn -0.0185 -0.1940 -0.9808
vn -0.9621 0.1498 0.2278
vn 0.4612 -0.4791 0.7468
vn 0.1356 0.1236 0.9830
vn 0.9721 0.0226 0.2336
vn 0.4819 -0.8543 0.1949
vn 0.0500 -0.9778 -0.2033
vn 0.0652 -0.1915 -0.9793
vn 0.1797 0.1229 0.9760
vn -0.6671 -0.2640 -0.6966
vn -0.8041 0.1241 -0.5815
vn 0.9483 0.0220 -0.3165
vn 0.4488 -0.8447 -0.2917
vn -0.3652 0.1058 -0.9249
vn -0.2978 -0.7858 0.5421
vn 0.1756 0.6240 0.7614
vn 0.2927 -0.7596 0.5809
vn 0.1596 0.9872 -0.0041
vn 0.0361 -0.4288 0.9027
vn -0.9480 -0.2929 0.1245
vn -0.9710 0.1506 -0.1856
vn -0.9710 0.1506 -0.1855
vn 0.9988 0.0232 -0.0431
vn 0.8065 -0.4905 -0.3302
vn 0.4024 0.7569 0.5149
vn -0.1228 0.8408 0.5272
vn -0.1230 0.8408 0.5272
vn -0.1230 0.8408 0.5271
vn -0.0604 -0.5132 0.8561
vn -0.6866 -0.6140 0.3894
vn -0.0525 -0.9606 0.2728
vn -0.2349 0.7227 -0.6500
vn 0.7412 -0.5690 0.3562
vn 0.4234 0.7241 -0.5444
vn 0.5157 -0.8527 0.0836
vn -0.1201 -0.2770 -0.9533
vn -0.1200 -0.2770 -0.9533
vn 0.7317 0.0361 -0.6807
vn 0.7317 0.0362 -0.6807
vn 0.7317 0.0360 -0.6807
vn 0.4487 -0.8447 -0.2917
vn 0.6719 0.1713 0.7206
vn 0.6719 0.1714 0.7206
vn -0.5404 -0.6840 -0.4900
vn -0.5403 -0.6841 -0.4900
vn -0.4501 -0.0156 0.8928
vn -0.4501 -0.0155 0.8928
vn 0.8862 0.4602 -0.0536
vn 0.8863 0.4600 -0.0533
vn -0.7606 0.6060 -0.2332
vn -0.7604 0.6062 -0.2329
vn -0.7604 0.6063 -0.2328
vn 0.0373 0.5347 -0.8442
vn 0.1593 0.9872 -0.0045
vn 0.9402 -0.3395 -0.0261
vn 0.9402 -0.3396 -0.0259
vn 0.9402 -0.3397 -0.0259
vn -0.4044 -0.8864 0.2252
vn -0.4043 -0.8864 0.2252
vn -0.0747 -0.7058 -0.7045
vn -0.0747 -0.7057 -0.7045
vn 0.6129 -0.3302 -0.7178
vn 0.6130 -0.3302 -0.7178
vn -0.4630 -0.5260 0.7134
vn -0.3899 -0.3046 -0.8690
vn 0.3490 0.4783 0.8059
vn 0.3491 0.4783 0.8059
vn -0.0014 0.5320 0.8467
vn -0.0014 0.5321 0.8467
vn 0.7636 0.3881 -0.5160
vn 0.7826 0.4292 0.4509
vn 0.7826 0.4293 0.4509
vn 0.0748 -0.7939 0.6035
vn 0.0748 -0.7938 0.6035
vn -0.6558 0.5942 0.4656
vn -0.6558 0.5943 0.4656
vn -0.5812 0.3910 -0.7137
vn -0.2350 0.2534 -0.9384
vn 0.3356 0.2850 -0.8979
vn 0.6510 -0.7591 -0.0013
vn 0.6509 -0.7591 -0.0013
vn 0.0865 0.8383 -0.5384
vn 0.0865 0.8383 -0.5383
vn -0.1326 0.9891 -0.0644
vn 0.1501 0.8463 0.5112
vn 0.4233 0.9058 -0.0198
vn -0.0528 -0.2687 0.9618
vn -0.0528 -0.2688 0.9618
vn 0.2371 -0.5732 0.7844
vn 0.2370 -0.5732 0.7844
vn -0.8724 -0.2642 0.4113
vn -0.8723 -0.2642 0.4113
vn -0.8723 -0.2642 0.4114
vn 0.3085 -0.9125 0.2688
vn 0.7280 -0.6781 0.1013
vn 0.7280 -0.6781 0.1012
vn 0.3281 -0.1605 0.9309
vn 0.3282 -0.1605 0.9309
vn 0.3281 -0.1604 0.9309
vn -0.7693 -0.6048 -0.2059
vn 0.2749 -0.9586 -0.0742
vn 0.2745 -0.9587 -0.0746
vn 0.2747 -0.9586 -0.0743
vn 0.2748 -0.9586 -0.0743
vn 0.8765 -0.2468 -0.4134
vn 0.8736 -0.3077 0.3769
vn 0.8737 -0.3077 0.3769
vn 0.0340 -0.1356 -0.9902
s off
f 68/1/1 187/2/1 2/3/1
f 116/4/2 163/5/2 233/6/2
f 154/7/3 44/8/3 222/9/3
f 225/10/4 128/11/4 110/12/4
f 251/13/5 146/14/5 51/15/5
f 247/16/6 196/17/6 157/18/6
f 86/19/7 36/20/7 242/21/7
f 4/22/8 189/23/8 6/24/8
f 40/25/9 130/26/9 226/27/9
f 240/28/10 57/29/10 76/30/10
f 238/31/11 176/32/11 56/33/11
f 16/34/12 134/35/12 263/36/12
f 23/37/13 32/38/13 38/39/13
f 60/40/14 61/41/14 69/42/14
f 88/43/15 91/44/15 96/45/15
f 120/46/16 124/47/16 129/48/16
f 150/49/17 152/50/17 159/51/17
f 200/52/18 210/53/18 212/54/18
f 217/55/19 219/56/19 223/57/19
f 228/58/20 234/59/20 237/60/20
f 175/61/21 236/62/21 232/63/21
f 175/61/22 232/63/22 162/64/22
f 147/65/23 252/66/23 264/67/23
f 147/65/23 264/67/23 135/68/23
s 1
f 258/69/24 193/70/24 30/71/24
f 258/69/24 30/71/24 19/72/24
f 54/73/25 140/74/25 213/75/25
f 54/73/25 213/75/25 122/76/25
f 114/77/26 125/78/27 208/79/28
f 114/77/26 208/79/28 169/80/27
f 94/81/29 161/82/29 215/83/29
f 94/81/29 215/83/29 105/84/29
f 231/85/30 73/86/30 97/87/30
f 231/85/30 97/87/30 100/88/30
f 89/89/31 85/90/31 241/91/31
f 89/89/31 241/91/31 148/92/31
f 203/93/32 180/94/32 64/95/32
f 203/93/32 64/95/32 172/96/32
f 155/97/33 198/98/33 254/99/33
f 155/97/33 254/99/33 46/100/33
f 202/101/34 137/102/34 12/103/34
f 202/101/34 12/103/34 185/104/34
f 33/105/35 194/106/35 248/107/35
f 1/108/36 24/109/36 81/110/37
f 1/108/36 81/110/37 67/111/36
f 9/112/38 10/113/39 17/114/40
f 9/112/38 17/114/40 21/115/39
f 23/37/41 27/116/41 32/38/41
f 39/117/42 45/118/42 48/119/43
f 39/117/42 48/119/43 52/120/43
f 71/121/44 74/122/45 78/123/45
f 71/121/44 78/123/45 82/124/45
f 115/125/46 102/126/47 104/127/47
f 104/127/47 107/128/46 111/129/46
f 104/127/47 111/129/46 115/125/46
f 133/130/48 139/131/49 143/132/49
f 133/130/48 143/132/49 145/133/49
f 164/134/50 166/135/51 171/136/52
f 164/134/50 171/136/52 174/137/51
f 179/138/53 183/139/53 188/140/53
f 200/52/54 206/141/54 210/53/54
f 250/142/55 256/143/56 260/144/57
f 250/142/55 260/144/57 262/145/56
f 83/146/58 87/147/59 95/148/58
f 83/146/58 95/148/58 70/149/58
f 35/150/60 84/151/60 79/152/61
f 35/150/60 79/152/61 22/153/60
f 18/154/62 28/155/62 26/156/63
f 18/154/62 26/156/63 8/157/63
f 93/158/64 103/159/64 101/160/64
f 93/158/64 101/160/64 98/161/64
f 65/162/65 80/163/65 77/164/65
f 65/162/65 77/164/65 59/165/65
f 53/166/66 119/167/67 131/168/66
f 53/166/66 131/168/66 42/169/67
f 123/170/68 113/171/68 109/172/69
f 123/170/68 109/172/69 127/173/68
f 13/174/70 138/175/70 132/176/70
f 13/174/70 132/176/70 14/177/70
f 142/178/71 55/179/72 49/180/71
f 142/178/71 49/180/71 144/181/72
f 90/182/73 149/183/73 158/184/74
f 90/182/73 158/184/74 92/185/74
f 112/186/75 167/187/76 165/188/76
f 112/186/75 165/188/76 118/189/76
f 170/190/77 62/191/77 58/192/77
f 170/190/77 58/192/77 177/193/77
f 63/194/78 178/195/78 186/196/78
f 63/194/78 186/196/78 66/197/78
f 182/198/79 11/199/79 7/200/79
f 182/198/79 7/200/79 190/201/79
f 195/202/80 34/203/80 29/204/81
f 195/202/80 29/204/81 191/205/81
f 181/206/82 205/207/82 199/208/83
f 181/206/82 199/208/83 184/209/82
f 168/210/84 207/211/84 204/212/84
f 168/210/84 204/212/84 173/213/84
f 121/214/85 211/215/85 209/216/85
f 121/214/85 209/216/85 126/217/85
f 136/218/86 201/219/86 214/220/86
f 136/218/86 214/220/86 141/221/86
f 106/222/87 216/223/88 224/224/87
f 106/222/87 224/224/87 108/225/88
f 153/226/89 220/227/90 218/228/89
f 153/226/89 218/228/89 160/229/90
f 117/230/91 235/231/91 229/232/92
f 117/230/91 229/232/92 99/233/93
f 151/234/94 244/235/94 246/236/94
f 151/234/94 246/236/94 156/237/94
f 192/238/95 257/239/96 253/240/95
f 192/238/95 253/240/95 197/241/96
f 221/242/97 43/243/97 41/244/98
f 221/242/97 41/244/98 227/245/99
f 72/246/100 230/247/100 239/248/100
f 72/246/100 239/248/100 75/249/100
f 243/250/101 37/251/102 31/252/103
f 243/250/101 31/252/103 245/253/104
f 259/254/105 20/255/105 15/256/105
f 259/254/105 15/256/105 261/257/105
f 47/258/106 255/259/106 249/260/107
f 47/258/106 249/260/107 50/261/107
f 3/262/108 5/263/108 25/264/108
