# Blender v3.4.1 OBJ File: ''
# www.blender.org
o Cube_Cube.005
v -1.576408 0.007388 0.301193
v -1.621814 -0.002907 0.377644
v -1.569033 0.203950 0.333808
v -1.296280 -0.946768 -0.429859
v -1.223947 -1.020911 -0.426633
v -1.304577 -1.066033 -0.308388
v -0.620002 -0.543148 1.489320
v -0.653246 -0.502170 1.595949
v -0.789148 -0.580637 1.548005
v 0.790090 -0.655779 1.508300
v 0.751985 -0.812744 1.484978
v 0.824162 -0.808773 1.449595
v 0.140546 0.571374 -0.738601
v 0.258813 0.605561 -0.610523
v 0.462787 0.533236 -0.601629
v 0.409279 0.422677 -0.655545
v 0.229541 0.457715 -0.746254
v -0.394660 0.503534 0.606930
v -0.287656 0.494207 0.774251
v -0.109357 0.449475 0.846807
v -0.012631 0.457287 0.624323
v -1.057743 0.673744 0.064319
v -1.277416 0.407172 0.232899
v -1.257175 0.620938 0.262575
v -1.023519 0.774349 0.233080
v -0.857561 0.803545 0.118271
v -0.914122 0.758340 -0.049720
v -0.941197 0.910422 1.494209
v -1.085941 0.896528 1.611122
v -0.938258 0.886079 1.652864
v -0.691211 0.820035 1.487792
v 0.289901 -0.011251 1.290507
v 0.359502 0.091084 1.327083
v 0.278679 0.207807 1.236741
v 0.098890 0.250269 1.285907
v 0.080838 0.150423 1.392476
v -0.023466 -0.012837 1.323973
v 0.043629 -0.039364 1.242947
v 0.184865 -0.082195 1.179038
v -2.108049 -0.023489 2.184819
v -2.144739 0.072742 2.092627
v -2.152404 -0.058042 1.932928
v -2.119286 -0.142972 2.086414
v -1.322178 0.483545 0.584393
v -1.481691 0.402327 0.526673
v -1.544216 0.173339 0.548992
v -1.546569 0.291120 0.736884
v -1.507887 0.439779 0.835350
v -1.346783 0.471382 0.748515
v -1.443319 -0.554890 0.748119
v -1.515766 -0.445993 0.672499
v -1.526012 -0.262289 0.510940
v -1.473024 -0.272521 0.445038
v -1.413494 -0.563259 0.449785
v -1.406283 -0.731216 0.457784
v -1.341111 -0.636189 0.602109
v -1.200839 -0.520287 0.779101
v -0.593985 -1.967124 0.445016
v -0.763265 -1.992165 0.482495
v -0.879905 -1.966415 0.348824
v -0.732736 -2.062224 0.333470
v 0.406171 -0.797055 0.281450
v 0.305514 -0.897600 0.131971
v 0.248622 -0.894924 -0.008317
v 0.293039 -0.725011 -0.127494
v 0.472472 -0.754369 -0.039757
v 0.545944 -0.748859 0.063430
v 0.465361 -0.792494 0.200873
v 1.546169 -0.291208 -0.179511
v 1.535124 -0.392157 -0.132114
v 1.479034 -0.391398 -0.238737
v 1.065711 0.263469 0.840349
v 1.129010 0.276703 0.684496
v 1.127655 0.398075 0.662033
v 1.012045 0.452207 0.823068
v 1.007028 0.307217 0.961127
v -0.636255 -0.163925 -1.122940
v -0.549366 -0.279577 -1.131635
v -0.677411 -0.405634 -1.111606
v -0.753695 -0.336471 -1.110452
vt 0.547917 0.456742
vt 0.468917 0.561301
vt 0.421499 0.478002
vt 0.801501 0.554141
vt 0.701827 0.642713
vt 0.697680 0.522743
vt 0.709520 0.666766
vt 0.778963 0.725136
vt 0.680086 0.733884
vt 0.462874 0.985554
vt 0.393810 0.973055
vt 0.442511 0.929935
vt 0.180749 0.686707
vt 0.283083 0.725974
vt 0.241831 0.737494
vt 0.533010 0.826933
vt 0.583219 0.935228
vt 0.456223 0.922707
vt 0.464302 0.580506
vt 0.530186 0.626756
vt 0.368974 0.560059
vt 0.478493 0.983538
vt 0.223488 0.614316
vt 0.287282 0.716974
vt 0.166924 0.670791
vt 0.502364 0.046380
vt 0.550824 0.104848
vt 0.434710 0.125980
vt 0.555543 0.660545
vt 0.633637 0.738621
vt 0.460925 0.740297
vt 0.485686 0.363638
vt 0.596233 0.309007
vt 0.564104 0.428576
vt 0.700299 0.639925
vt 0.569361 0.639446
vt 0.845907 0.658548
vt 0.808407 0.721101
vt 0.730408 0.655539
vt 0.582770 0.020454
vt 0.568069 0.093743
vt 0.517127 0.032282
vt 0.843744 0.636180
vt 0.742597 0.633545
vt 0.817171 0.567505
vt 0.585283 0.284147
vt 0.464185 0.343897
vt 0.416675 0.149929
vt 0.334101 0.565260
vt 0.302080 0.704815
vt 0.240503 0.605726
vt 0.186165 0.517430
vt 0.330473 0.548815
vt 0.228355 0.592990
vt 0.546270 0.137637
vt 0.544177 0.185966
vt 0.477647 0.150126
vt 0.399978 0.296596
vt 0.270738 0.504420
vt 0.363491 0.572248
vt 0.529481 0.640922
vt 0.424129 0.729721
vt 0.472280 0.374777
vt 0.550910 0.439891
vt 0.423882 0.461255
vt 0.315698 0.718765
vt 0.346556 0.584276
vt 0.405000 0.736050
vt 0.162164 0.651568
vt 0.177216 0.534791
vt 0.213690 0.600124
vt 0.699063 0.636020
vt 0.657814 0.727741
vt 0.559999 0.468710
vt 0.547888 0.622263
vt 0.479993 0.574601
vt 0.574702 0.130799
vt 0.596204 0.154125
vt 0.572346 0.185198
vt 0.544548 0.211377
vt 0.541842 0.207874
vt 0.568878 0.229498
vt 0.181742 0.515422
vt 0.181581 0.516433
vt 0.442521 0.924796
vt 0.446757 0.923721
vt 0.395749 0.742983
vt 0.406962 0.733559
vt 0.559393 0.436661
vt 0.560766 0.445677
vt 0.553368 0.446921
vt 0.546681 0.448046
vt 0.597393 0.297646
vt 0.597186 0.297748
vt 0.609060 0.291881
vt 0.609733 0.291548
vt 0.605475 0.307392
vt 0.586453 0.930560
vt 0.586642 0.935566
vt 0.580243 0.906200
vt 0.532250 0.814145
vt 0.535660 0.809891
vt 0.535660 0.809891
vt 0.541372 0.822230
vt 0.515959 0.838728
vt 0.517791 0.832179
vt 0.524563 0.823732
vt 0.469028 0.984552
vt 0.464557 0.988508
vt 0.455391 0.989642
vt 0.579891 0.116697
vt 0.568207 0.153272
vt 0.569869 0.114888
vt 0.570244 0.106232
vt 0.573293 0.109540
vt 0.390345 0.977870
vt 0.386528 0.977179
vt 0.383895 0.976703
vt 0.383895 0.976703
vt 0.383895 0.976703
vt 0.388780 0.972378
vt 0.399280 0.963082
vt 0.343282 0.551601
vt 0.339166 0.550706
vt 0.334768 0.545269
vt 0.341921 0.550589
vt 0.343282 0.551601
vt 0.343282 0.551601
vt 0.475292 0.566389
vt 0.464561 0.566744
vt 0.562533 0.639049
vt 0.563107 0.629662
vt 0.565622 0.627377
vt 0.568020 0.639368
vt 0.277158 0.502424
vt 0.280446 0.504869
vt 0.265692 0.502499
vt 0.571471 0.433937
vt 0.451696 0.914617
vt 0.514095 0.836788
vt 0.608494 0.147725
vt 0.574149 0.231638
vt 0.595900 0.268259
vt 0.565402 0.246486
vt 0.461779 0.568186
vt 0.415179 0.486326
vt 0.472753 0.172700
vt 0.395426 0.288429
vt 0.410036 0.160626
vt 0.396158 0.746280
vt 0.312943 0.730174
vt 0.179659 0.514630
vt 0.263629 0.501715
vt 0.584939 0.940570
vt 0.490101 0.984296
vt 0.856733 0.661202
vt 0.817720 0.726278
vt 0.678843 0.524524
vn -0.0078 -0.4639 -0.8859
vn 0.2817 0.9434 0.1752
vn 0.5963 0.7988 0.0796
vn -0.2453 -0.9545 0.1699
vn 0.5208 -0.7259 -0.4493
vn 0.2563 0.0130 0.9665
vn 0.3621 -0.6248 0.6918
vn 0.3866 0.0416 0.9213
vn -0.3294 -0.2213 0.9179
vn -0.8923 0.0021 -0.4514
vn 0.3441 0.4040 0.8475
vn -0.3136 0.6785 -0.6643
vn -0.0175 0.9932 0.1154
vn -0.0063 0.8632 -0.5048
vn -0.6392 0.7624 -0.1012
vn -0.0320 0.7831 0.6211
vn -0.9183 0.1499 -0.3665
vn 0.7401 -0.4866 0.4642
vn 0.2777 -0.4775 -0.8336
vn -0.8754 -0.0782 0.4769
vn -0.8540 0.4255 -0.2993
vn 0.2242 -0.8071 -0.5461
vn 0.8985 -0.3517 -0.2627
vn 0.6484 -0.3253 -0.6883
vn -0.8647 -0.4397 0.2427
vn -0.9171 -0.3953 0.0510
vn -0.0743 0.9107 0.4063
vn 0.6471 0.7152 -0.2640
vn -0.7993 0.5611 -0.2151
vn -0.8608 0.1146 -0.4958
vn -0.5595 -0.5720 -0.5998
vn 0.3344 -0.8401 0.4271
vn 0.4382 -0.2353 0.8675
vn 0.4086 0.4877 -0.7715
vn 0.1540 0.9873 0.0393
vn -0.6220 0.6463 -0.4421
vn 0.2313 0.9623 0.1434
vn 0.2070 -0.2274 0.9515
vn -0.9747 -0.1204 0.1882
vn -0.7438 0.6556 -0.1305
vn -0.8151 -0.5793 -0.0089
vn -0.1363 -0.9070 0.3985
vn 0.4634 -0.8430 -0.2730
vn 0.8430 -0.3014 -0.4456
vn 0.8759 0.2356 0.4212
vn -0.0947 -0.0305 -0.9950
vn -0.7033 0.4388 -0.5593
vn -0.1064 -0.7904 0.6033
vn 0.0015 0.9656 -0.2599
vn 0.6617 -0.6073 0.4397
vn 0.0991 -0.6381 0.7635
vn -0.5094 0.8238 0.2488
vn -0.7534 -0.6306 -0.1864
vn 0.2557 -0.4407 0.8605
vn 0.4773 0.1877 -0.8585
vn 0.4741 -0.5855 -0.6576
vn -0.7354 -0.3638 0.5716
vn -0.4226 0.1638 -0.8914
vn 0.6885 -0.6642 -0.2911
vn -0.9990 -0.0430 0.0145
vn 0.3050 -0.9376 -0.1671
vn -0.9502 0.2739 0.1486
vn 0.7634 -0.5914 0.2598
vn -0.7065 -0.5120 -0.4886
vn 0.9176 0.0822 0.3890
vn 0.1784 0.6758 0.7152
vn -0.9926 -0.0466 -0.1117
vn -0.4307 -0.0295 0.9020
vn -0.4859 -0.6531 -0.5808
vn 0.1067 0.8892 0.4448
vn 0.1597 -0.9738 -0.1619
vn 0.3252 0.9161 -0.2344
vn 0.3388 0.9127 0.2285
vn -0.4388 -0.4661 -0.7683
vn 0.0426 -0.9988 -0.0253
vn -0.0232 0.9972 0.0704
vn 0.5588 0.5568 0.6146
vn 0.3419 -0.4212 -0.8401
vn 0.9042 0.0381 0.4255
vn -0.1655 0.6477 0.7437
vn -0.5101 -0.1188 -0.8518
vn -0.3487 0.8782 -0.3274
vn 0.3354 0.9390 -0.0759
vn 0.2329 0.2457 -0.9409
vn 0.1782 -0.8820 0.4363
vn -0.8515 0.4250 -0.3072
vn 0.2741 -0.3575 -0.8928
s off
f 16/1/1 71/2/1 66/3/1
f 26/4/2 21/5/2 14/6/2
f 20/7/3 31/8/3 35/9/3
f 43/10/4 50/11/4 9/12/4
f 57/13/5 37/14/5 7/15/5
f 36/16/6 30/17/6 8/18/6
f 70/19/7 73/20/7 67/21/7
f 30/17/8 40/22/8 8/18/8
f 59/23/9 38/24/9 56/25/9
f 42/26/10 47/27/10 51/28/10
f 76/29/11 33/30/11 10/31/11
f 77/32/12 27/33/12 13/34/12
f 21/35/13 75/36/13 14/6/13
f 49/37/14 28/38/14 19/39/14
f 29/40/15 48/41/15 41/42/15
f 44/43/16 18/44/16 25/45/16
f 22/46/17 80/47/17 54/48/17
f 63/49/18 39/50/18 58/51/18
f 5/52/19 64/53/19 61/54/19
f 46/55/20 2/56/20 52/57/20
f 4/58/21 54/48/21 80/47/21
f 64/53/22 5/52/22 79/59/22
f 68/60/23 72/61/23 12/62/23
f 78/63/24 17/64/24 65/65/24
f 32/66/25 62/67/25 11/68/25
f 55/69/26 6/70/26 60/71/26
f 75/36/27 21/72/27 34/73/27
f 15/74/28 74/75/28 69/76/28
f 45/77/29 24/78/29 3/79/29
f 1/80/30 2/81/30 3/82/30
f 4/83/31 5/52/31 6/84/31
f 7/85/32 8/86/32 9/12/32
f 10/87/33 11/68/33 12/88/33
f 13/89/34 14/90/34 15/91/34 16/92/34 17/64/34
f 18/44/35 19/39/35 20/7/35 21/5/35
f 22/93/36 23/94/36 24/95/36 25/96/36 26/97/36 27/33/36
f 28/98/37 29/99/37 30/17/37 31/100/37
f 32/101/38 33/102/38 34/103/38 35/104/38 36/16/38 37/105/38 38/106/38 39/107/38
f 40/108/39 41/109/39 42/110/39 43/10/39
f 44/111/40 45/77/40 46/112/40 47/113/40 48/114/40 49/115/40
f 50/11/41 51/116/41 52/117/41 53/118/41 54/119/41 55/120/41 56/121/41 57/122/41
f 58/51/42 59/23/42 60/71/42 61/54/42
f 62/123/43 63/124/43 64/53/43 65/125/43 66/126/43 67/127/43 68/128/43
f 69/129/44 70/130/44 71/2/44
f 72/131/45 73/132/45 74/133/45 75/36/45 76/134/45
f 77/135/46 78/136/46 79/59/46 80/137/46
f 27/33/47 77/32/47 80/47/47 22/46/47
f 39/50/48 63/49/48 62/67/48 32/66/48
f 13/34/49 27/33/49 26/97/49 14/138/49
f 7/139/50 37/140/50 36/16/50 8/18/50
f 8/18/51 40/22/51 43/10/51 9/12/51
f 24/78/52 45/77/52 44/111/52 25/141/52
f 42/110/53 51/116/53 50/11/53 43/10/53
f 38/24/54 59/23/54 58/51/54 39/50/54
f 15/74/55 69/76/55 71/2/55 16/1/55
f 64/53/56 79/59/56 78/136/56 65/125/56
f 55/69/57 60/71/57 59/23/57 56/25/57
f 3/142/58 24/143/58 23/144/58 1/80/58
f 61/54/59 64/53/59 63/49/59 58/51/59
f 46/55/60 52/57/60 51/28/60 47/27/60
f 66/3/61 71/2/61 70/145/61 67/146/61
f 2/56/62 46/55/62 45/77/62 3/79/62
f 67/21/63 73/20/63 72/61/63 68/60/63
f 1/80/64 53/147/64 52/57/64 2/56/64
f 69/76/65 74/75/65 73/20/65 70/19/65
f 33/30/66 76/29/66 75/36/66 34/73/66
f 6/148/67 55/149/67 54/48/67 4/58/67
f 10/150/68 33/151/68 32/66/68 11/68/68
f 5/52/69 61/54/69 60/71/69 6/70/69
f 21/5/70 26/4/70 25/45/70 18/44/70
f 9/12/71 50/11/71 57/122/71 7/85/71
f 19/39/72 28/38/72 31/8/72 20/7/72
f 20/7/73 35/9/73 34/73/73 21/72/73
f 4/152/74 80/153/74 79/59/74 5/52/74
f 11/68/75 62/67/75 68/60/75 12/62/75
f 18/44/76 44/43/76 49/37/76 19/39/76
f 30/17/77 36/16/77 35/104/77 31/100/77
f 16/1/78 66/3/78 65/65/78 17/64/78
f 12/62/79 72/61/79 76/29/79 10/31/79
f 29/154/80 41/155/80 40/22/80 30/17/80
f 22/46/81 54/48/81 53/147/81 23/144/81
f 28/38/82 49/37/82 48/156/82 29/157/82
f 14/6/83 75/36/83 74/133/83 15/158/83
f 17/64/84 78/63/84 77/32/84 13/34/84
f 37/14/85 57/13/85 56/25/85 38/24/85
f 41/42/86 48/41/86 47/27/86 42/26/86
f 53/147/87 1/80/87 23/144/87
